<svg width="34" height="34" viewBox="0 0 34 34" fill="none" xmlns="http://www.w3.org/2000/svg">
<path d="M17 0.5C7.8873 0.5 0.5 7.8873 0.5 17C0.5 26.1127 7.8873 33.5 17 33.5C26.1127 33.5 33.5 26.1127 33.5 17C33.5 7.8873 26.1127 0.5 17 0.5Z" stroke="#8B98D1"/>
<g clip-path="url(#clip0_19_20845)">
<rect x="1" y="1" width="32" height="32" rx="16" fill="#FFEE56"/>
<path d="M44.7191 19.8546C43.6712 19.917 42.6232 19.9669 41.5752 20.0293C41.0887 20.0542 38.9179 20.1665 38.4314 20.2039C38.3441 21.9131 38.2068 24.1837 37.9698 26.8534C37.3211 34.1392 36.7846 34.6507 36.3854 34.7879C34.7386 35.3369 33.516 30.1969 27.902 27.0406C27.2407 26.6663 26.5671 26.3544 25.9059 26.0924C24.3838 25.4811 22.8868 25.1443 21.5643 24.9571C21.3523 24.9322 21.1526 24.8948 20.9655 24.8823C20.953 24.8823 20.9406 24.8948 20.9281 24.8948V24.9072C20.2045 27.0406 19.4934 29.1864 18.7698 31.3197C18.4953 32.1431 18.2209 32.954 17.9464 33.7774C16.5741 33.74 15.2018 33.6901 13.8419 33.6527C13.8544 33.6028 13.8544 33.5529 13.8669 33.478C13.8794 33.4406 13.8794 33.3907 13.8918 33.3408C13.9043 33.2784 13.9168 33.216 13.9168 33.1536C13.9293 33.1037 13.9293 33.0538 13.9417 32.9914C13.9542 32.954 13.9542 32.9166 13.9667 32.8667C13.9667 32.8293 13.9792 32.7918 13.9792 32.7544C14.0166 32.5174 14.0665 32.2429 14.1164 31.9435C14.1289 31.8562 14.1413 31.7813 14.1538 31.694C14.1663 31.6441 14.1663 31.6067 14.1788 31.5567C14.1788 31.5193 14.1912 31.4944 14.1912 31.4569C14.2037 31.3571 14.2287 31.2573 14.2411 31.1575C14.2411 31.1451 14.2411 31.1326 14.2411 31.1201C14.2536 31.0203 14.2786 30.9205 14.291 30.8207C14.4158 30.0347 14.5655 29.1739 14.6903 28.363C14.7027 28.3006 14.7152 28.2507 14.7152 28.1883C14.7402 28.0137 14.7651 27.8515 14.8026 27.6893C14.815 27.6269 14.8275 27.5645 14.8275 27.5022C14.84 27.4523 14.84 27.4148 14.8525 27.3649C14.8649 27.2776 14.8774 27.1903 14.9024 27.103C14.9148 27.0156 14.9273 26.9283 14.9398 26.841C14.9523 26.8035 14.9523 26.7536 14.9647 26.7162C15.0271 26.317 15.0895 25.9677 15.1269 25.7182C13.0061 26.4043 11.3593 27.2776 10.0618 28.1883C8.80177 29.0741 7.87858 30.0098 7.19242 30.8581C3.99866 34.8129 2.91328 40.6141 0.879751 40.4519C0.45558 40.4144 -0.193151 40.0527 -2.60095 33.1536C-3.41186 30.8456 -4.04812 28.8495 -4.53467 27.2651C-6.59315 27.7517 -8.65163 28.2382 -10.6976 28.7373C-9.64968 33.9271 -7.70348 41.9365 -4.87151 46.802C-4.47229 47.4881 -4.0606 48.1119 -3.62395 48.6484C-3.21225 49.1599 -2.48867 49.9708 -1.30348 50.345C0.380727 50.8815 2.02751 50.2328 2.66376 49.9832C3.00061 49.846 3.3125 49.6838 3.59944 49.5092C4.18579 49.1599 4.69729 48.7232 5.20879 48.1493C4.77214 50.1454 4.32302 52.3037 3.88638 54.6616C4.52264 54.6616 5.17137 54.6741 5.80762 54.6741C11.9831 54.7115 18.1585 54.7489 24.3339 54.7739C24.8829 54.7739 25.4193 54.7739 25.9682 54.7864C26.5296 49.0226 27.0786 43.2589 27.64 37.4951C28.3386 38.2187 32.5055 42.4604 35.3873 43.8951C35.8115 44.1072 36.348 44.3318 37.0216 44.4565C37.5331 44.5564 39.3296 44.8558 40.9515 43.8328C42.0119 43.1716 42.5109 42.2109 42.7854 41.6121C43.0723 40.9758 43.3218 40.2772 43.5464 39.5162C45.1682 33.8523 45.006 25.0819 44.7191 19.8546Z" fill="#FF0F97"/>
<path d="M22.5871 19.1311C21.7886 19.0313 21.3146 18.4699 21.2023 18.3327C21.1025 18.158 20.9528 17.8087 20.9528 17.3346C20.9653 16.6485 21.3146 16.1869 21.4393 16.0496C21.352 16.0871 20.7781 16.3615 20.2167 16.0871C19.5929 15.7877 19.3933 14.6898 19.4682 14.2906C19.4682 14.2656 19.4807 14.2033 19.4682 14.1908C19.3808 14.1409 19.0939 14.852 18.5076 15.2138C17.8463 15.6255 17.0604 15.4259 16.9232 15.4009C16.5863 15.3261 16.1247 15.2013 15.8752 14.7647C15.5259 14.1533 15.9376 13.4422 15.975 13.3923C15.5508 13.6169 14.428 14.1409 13.2553 13.7791C13.0557 13.7167 12.7563 13.6294 12.5193 13.4422C12.3695 13.6418 12.2448 13.8664 12.12 14.091C12.0327 14.2532 11.9579 14.4153 11.8705 14.59C10.3984 17.9459 11.3216 22.774 13.8791 24.1089C14.3157 24.3335 14.8023 24.4582 15.3263 24.5081C15.2639 24.9073 15.2015 25.2941 15.1516 25.6933C15.1142 25.9428 15.0518 26.2921 14.9894 26.6913C14.9894 26.7288 14.977 26.7787 14.9645 26.8161C14.952 26.9034 14.9395 26.9908 14.9271 27.0781C14.9146 27.1654 14.9021 27.2528 14.8771 27.3401C14.8647 27.39 14.8647 27.4274 14.8522 27.4773C14.8397 27.5397 14.8272 27.6021 14.8272 27.6645C14.8023 27.8266 14.7773 28.0013 14.7399 28.1635C14.7274 28.2259 14.715 28.2758 14.715 28.3381C14.6651 28.6251 14.6152 28.9245 14.5653 29.2239C15.8752 29.5857 17.6966 30.0972 19.0565 30.4715C19.6803 28.6001 20.3165 26.7288 20.9403 24.8574C20.9403 24.8574 20.9403 24.8574 20.9403 24.845C20.9403 24.845 20.9403 24.845 20.9403 24.8325V24.82C21.09 23.797 21.2272 22.774 21.377 21.7635C21.9259 21.1397 22.375 20.4411 22.6869 19.6676C22.7243 19.5678 22.7742 19.4555 22.8117 19.3432C22.8366 19.2684 22.8615 19.1935 22.8865 19.1186C22.7867 19.1436 22.6869 19.1436 22.5871 19.1311Z" fill="#8235FF"/>
<path d="M29.9604 17.11C29.3117 15.7002 27.1534 14.9642 24.5959 15.2386C24.5834 15.2386 24.571 15.2386 24.5585 15.2262C24.1593 14.1283 23.3733 12.756 21.9511 11.6082C24.022 11.5084 25.6688 9.79926 25.6688 7.70336C25.6688 5.54507 23.9222 3.78601 21.7764 3.78601C19.6306 3.78601 17.884 5.5326 17.884 7.70336C17.884 8.51427 18.1335 9.27529 18.5577 9.89907C16.4493 9.42499 14.9148 9.44995 14.0166 9.5248C14.0166 9.5248 12.4446 9.66203 12.008 10.3482C11.7959 10.6726 11.8333 10.9844 11.8333 10.9844C11.8458 11.0593 11.8583 11.2215 11.983 11.3712C12.1452 11.5833 12.3573 11.6332 12.4197 11.6457C12.4197 11.6457 12.1203 12.0948 12.1203 12.6063C10.3737 12.8184 9.00137 13.9412 8.66453 15.3384C8.29026 16.8729 9.31326 18.1954 9.47545 18.4074C8.31521 18.3451 7.27974 19.1435 7.05518 20.2663C6.83061 21.3642 7.42944 22.4745 8.4774 22.8987C6.68091 24.271 6.46882 26.3544 7.27974 27.2152C7.82866 27.8016 8.88909 27.8889 9.89962 27.5895C9.962 27.8016 10.0244 27.9887 10.0992 28.1759C11.3967 27.2651 13.0435 26.4043 15.1643 25.7057C15.2267 25.3065 15.2891 24.9197 15.339 24.5205C14.815 24.4831 14.3285 24.3458 13.8918 24.1213C11.3343 22.7864 10.4111 17.9583 11.8832 14.6024C11.9581 14.4277 12.0329 14.2655 12.1328 14.1034C12.2575 13.8788 12.3823 13.6667 12.532 13.4546C12.769 13.6418 13.056 13.7291 13.268 13.7915C14.4407 14.1408 15.5636 13.6293 15.9877 13.4047C15.9628 13.4546 15.5511 14.1657 15.8879 14.777C16.1374 15.2137 16.599 15.3384 16.9359 15.4133C17.0856 15.4382 17.8591 15.6379 18.5203 15.2262C19.1191 14.8644 19.3936 14.1533 19.4809 14.2032C19.5059 14.2156 19.4934 14.278 19.4809 14.303C19.406 14.7022 19.6057 15.8 20.2294 16.0995C20.7908 16.3614 21.3647 16.0995 21.452 16.062C21.3398 16.1993 20.978 16.6609 20.9655 17.347C20.953 17.7837 21.1027 18.133 21.2025 18.3076C21.2025 18.3201 21.215 18.3326 21.215 18.3326C21.3273 18.4823 21.8014 19.0312 22.5998 19.131C22.6996 19.1435 22.7994 19.1435 22.8992 19.1435C22.8743 19.2184 22.8493 19.2932 22.8244 19.3681C22.7869 19.4804 22.7495 19.5802 22.6996 19.6924C22.3877 20.4659 21.9386 21.1646 21.3897 21.7883C21.24 22.8113 21.1027 23.8343 20.953 24.8449V24.8573C20.953 24.8698 20.953 24.8698 20.953 24.8698C20.9655 24.8698 20.978 24.8573 20.9904 24.8573C21.1901 24.8823 21.3897 24.9072 21.5893 24.9322C22.9117 25.1193 24.3963 25.4687 25.9308 26.0675C26.1179 25.6932 26.2552 25.3564 26.355 25.0819C26.4672 25.0694 28.0766 24.9197 28.8501 23.4601C29.3741 22.4745 29.3242 21.2893 28.7253 20.3412C28.9249 20.2663 29.7359 19.9419 30.0977 19.0936C30.4719 18.2078 30.0727 17.347 29.9604 17.11Z" fill="black"/>
<path d="M15.788 20.0044L14.0289 19.7549C14.0165 19.7549 13.9915 19.7424 13.979 19.7299C13.9666 19.7175 13.9666 19.6925 13.9666 19.68L14.8523 16.7607C14.8648 16.7233 14.9022 16.7108 14.9272 16.7233C14.9646 16.7358 14.9771 16.7732 14.9646 16.7982L14.0913 19.6426L15.763 19.8796C15.8005 19.8796 15.8254 19.9171 15.8129 19.9545C15.8504 19.9794 15.8254 20.0044 15.788 20.0044Z" fill="black"/>
<path d="M14.0462 16.668C14.1038 16.5277 13.7629 16.255 13.2848 16.0589C12.8066 15.8627 12.3724 15.8174 12.3149 15.9576C12.2573 16.0979 12.5983 16.3706 13.0764 16.5667C13.5545 16.7629 13.9887 16.8082 14.0462 16.668Z" fill="black"/>
<path d="M17.5178 16.7405C18.0218 16.6264 18.4033 16.4141 18.3698 16.2663C18.3364 16.1185 17.9007 16.0911 17.3967 16.2051C16.8927 16.3192 16.5113 16.5315 16.5447 16.6793C16.5782 16.8271 17.0138 16.8545 17.5178 16.7405Z" fill="black"/>
<path d="M15.9001 21.9007C15.4884 21.9007 15.1765 21.7261 15.1516 21.7136C15.1266 21.7011 15.1141 21.6637 15.1266 21.6263C15.1391 21.6013 15.1765 21.5888 15.2139 21.6013C15.2389 21.6138 15.8876 21.9756 16.5239 21.6013C17.0603 21.2894 17.1601 20.6906 17.1601 20.6282C17.1601 20.5908 17.1976 20.5658 17.235 20.5783C17.2724 20.5783 17.2974 20.6157 17.2849 20.6532C17.2724 20.7779 17.1601 21.3892 16.5862 21.7261C16.3492 21.8633 16.1122 21.9007 15.9001 21.9007Z" fill="black"/>
<path d="M15.3388 24.6454C15.3263 24.6454 15.3263 24.6454 15.3138 24.6454C15.2764 24.6454 15.2515 24.6205 15.2515 24.583C15.2515 24.5456 15.2764 24.5207 15.3138 24.5207C15.3263 24.5207 15.3263 24.5207 15.3388 24.5207C15.763 24.5207 16.1996 24.4832 16.6238 24.4084L16.6612 24.3959C16.6862 24.3959 16.6986 24.3834 16.7236 24.3834C16.8608 24.3585 17.0105 24.3211 17.1727 24.2836C17.1727 24.2836 17.1727 24.2836 17.1852 24.2836C17.2725 24.2587 17.3723 24.2337 17.4597 24.2088C17.4721 24.2088 17.4721 24.2088 17.4846 24.2088C17.5096 24.1963 17.5345 24.1963 17.5595 24.1838C17.6218 24.1589 17.6842 24.1464 17.7466 24.1214C18.5201 23.8719 19.2561 23.4977 19.9174 23.0111C19.9298 22.9986 19.9423 22.9986 19.9548 22.9862L19.9797 22.9737C20.0047 22.9487 20.0421 22.9612 20.0671 22.9862C20.092 23.0111 20.0795 23.0485 20.0546 23.0735L20.0421 23.086C20.0296 23.0984 20.0172 23.0984 20.0047 23.1109C19.331 23.5975 18.5949 23.9842 17.809 24.2462C17.7466 24.2711 17.6842 24.2836 17.6218 24.3086C17.5969 24.3211 17.5719 24.3211 17.547 24.3335C17.5345 24.3335 17.522 24.3335 17.522 24.346C17.4347 24.371 17.3349 24.3959 17.2476 24.4209H17.2351C17.0729 24.4583 16.9232 24.4957 16.786 24.5207C16.761 24.5207 16.7361 24.5331 16.7236 24.5331L16.6862 24.5456C16.2121 24.608 15.7754 24.6454 15.3388 24.6454Z" fill="black"/>
<path d="M24.8452 20.1665C24.8452 21.439 23.8098 22.4745 22.5372 22.4745C21.2647 22.4745 20.2292 21.439 20.2292 20.1665C20.2292 19.393 20.6035 18.7069 21.1899 18.2952C21.1899 18.3076 21.2023 18.3201 21.2023 18.3201C21.3146 18.4698 21.7887 19.0188 22.5871 19.1186C22.6869 19.131 22.7868 19.131 22.8866 19.131C23.3981 19.1186 23.8846 18.9065 24.2339 18.5946C24.6207 19.0188 24.8452 19.5677 24.8452 20.1665Z" fill="#8235FF"/>
<path d="M21.7885 21.2269C21.776 21.2269 21.7636 21.2269 21.7511 21.2144C21.7261 21.1895 21.7137 21.152 21.7386 21.1271C21.9382 20.8651 22.0006 20.6156 21.9507 20.4035C21.8759 20.1166 21.6014 19.9793 21.6014 19.9793C21.5764 19.9669 21.564 19.9544 21.564 19.9294C21.564 19.9045 21.5764 19.8795 21.5889 19.8671L23.4104 18.8191C23.4353 18.8066 23.4727 18.8066 23.4977 18.8441C23.5102 18.869 23.5102 18.9064 23.4727 18.9314L21.7386 19.9294C21.8384 20.0043 22.0006 20.154 22.063 20.3786C22.1254 20.6281 22.0505 20.9025 21.8259 21.202C21.8259 21.2144 21.8135 21.2269 21.7885 21.2269Z" fill="black"/>
<path d="M18.9816 17.4843C18.9068 18.4948 18.021 19.2808 17.023 19.2184C16.0499 19.156 15.2764 18.3202 15.2888 17.3346C16.5239 17.3845 17.759 17.4344 18.9816 17.4843Z" fill="#D5E0EA"/>
<path d="M14.3907 17.2972C14.3533 18.2952 13.5049 19.0812 12.5069 19.0313C11.5088 18.9814 10.7229 18.1455 10.7728 17.1475C11.9704 17.1974 13.1806 17.2473 14.3907 17.2972Z" fill="#D5E0EA"/>
<path d="M15.7007 17.4967C15.6757 17.4967 15.6633 17.4843 15.6508 17.4718C15.6258 17.4344 15.3888 17.0476 14.9272 16.9852C14.5779 16.9478 14.2286 17.0975 14.0165 17.3969C13.9915 17.4219 13.9541 17.4344 13.9292 17.4094C13.9042 17.3845 13.8917 17.347 13.9167 17.3221C14.1537 16.9852 14.5405 16.8106 14.9397 16.848C15.4512 16.9104 15.7132 17.3096 15.7506 17.3969C15.7631 17.4219 15.7631 17.4593 15.7256 17.4843C15.7256 17.4967 15.7132 17.4967 15.7007 17.4967Z" fill="black"/>
<path d="M21.2647 17.9084C21.2647 17.9084 21.2522 17.9084 21.2398 17.9084L18.7446 17.7213C18.7072 17.7213 18.6823 17.6839 18.6823 17.6589C18.6823 17.6215 18.7197 17.5966 18.7446 17.5966L21.2398 17.7837C21.2772 17.7837 21.3021 17.8211 21.3021 17.8461C21.3146 17.8835 21.2897 17.9084 21.2647 17.9084Z" fill="black"/>
<path d="M12.8064 19.0811C12.7814 19.0811 12.7565 19.0686 12.744 19.0437C12.6317 18.8191 12.5818 18.5696 12.5943 18.3201C12.6068 17.8086 12.8438 17.4219 13.0434 17.1973C13.0684 17.1724 13.1058 17.1724 13.1307 17.1973C13.1557 17.2223 13.1557 17.2597 13.1307 17.2846C12.9436 17.4967 12.7315 17.846 12.719 18.3201C12.719 18.5571 12.7689 18.7817 12.8687 18.9938C12.8812 19.0312 12.8687 19.0562 12.8438 19.0811C12.8188 19.0811 12.8188 19.0811 12.8064 19.0811Z" fill="white"/>
<path d="M17.3598 19.2683C17.3348 19.2683 17.3224 19.2558 17.3099 19.2309C17.2101 19.0437 17.0853 18.7443 17.0853 18.37C17.0978 17.9209 17.2725 17.5841 17.4222 17.3845C17.4471 17.3595 17.4845 17.347 17.5095 17.372C17.5344 17.397 17.5469 17.4344 17.522 17.4593C17.3847 17.6465 17.2101 17.9584 17.2101 18.37C17.2101 18.7194 17.3224 18.9938 17.4222 19.1685C17.4346 19.1934 17.4346 19.2309 17.3972 19.2558C17.3847 19.2683 17.3723 19.2683 17.3598 19.2683Z" fill="white"/>
<path d="M16.7861 17.7586C16.9376 17.7586 17.0605 17.6358 17.0605 17.4842C17.0605 17.3326 16.9376 17.2097 16.7861 17.2097C16.6345 17.2097 16.5116 17.3326 16.5116 17.4842C16.5116 17.6358 16.6345 17.7586 16.7861 17.7586Z" fill="black"/>
<path d="M12.2574 17.5841C12.409 17.5841 12.5318 17.4612 12.5318 17.3096C12.5318 17.158 12.409 17.0352 12.2574 17.0352C12.1058 17.0352 11.9829 17.158 11.9829 17.3096C11.9829 17.4612 12.1058 17.5841 12.2574 17.5841Z" fill="black"/>
<path d="M22.8492 23.2232C23.3316 23.2232 23.7225 22.8322 23.7225 22.3499C23.7225 21.8675 23.3316 21.4766 22.8492 21.4766C22.3669 21.4766 21.976 21.8675 21.976 22.3499C21.976 22.8322 22.3669 23.2232 22.8492 23.2232Z" fill="#00CE87"/>
<path d="M14.5657 29.2489C14.4784 29.7729 14.3911 30.3093 14.3037 30.8208C14.2913 30.9206 14.2663 31.0204 14.2538 31.1202C14.2414 31.2325 14.2164 31.3448 14.2039 31.4446C14.1915 31.5195 14.179 31.6068 14.1665 31.6816C14.154 31.769 14.1416 31.8563 14.1291 31.9312C14.1041 32.0809 14.0792 32.2181 14.0542 32.3553C14.0417 32.4177 14.0293 32.4926 14.0168 32.5549C14.0043 32.6173 13.9918 32.6797 13.9918 32.7421C13.9918 32.7795 13.9794 32.8169 13.9794 32.8544C13.9544 33.029 13.9295 33.1912 13.9045 33.316C13.892 33.3659 13.892 33.4158 13.8796 33.4532C13.8671 33.5156 13.8546 33.5779 13.8546 33.6278C15.2269 33.6653 16.5993 33.7152 17.9591 33.7526C18.2336 32.9292 18.508 32.1183 18.7825 31.2949C18.8698 31.0329 18.9571 30.7585 19.0569 30.4965C17.6971 30.1222 15.8632 29.6107 14.5657 29.2489Z" fill="white"/>
<path d="M19.0445 30.5589L14.5408 29.3113C14.5033 29.2988 14.4909 29.2614 14.5033 29.2364C14.5158 29.199 14.5408 29.1865 14.5782 29.199L19.0694 30.4466C19.1068 30.4591 19.1193 30.4965 19.1068 30.5214C19.1068 30.5464 19.0819 30.5589 19.0445 30.5589Z" fill="#1F0D60"/>
</g>
<path d="M23.5 6C23.5 3.51472 25.5147 1.5 28 1.5C30.4853 1.5 32.5 3.51472 32.5 6C32.5 8.48528 30.4853 10.5 28 10.5C25.5147 10.5 23.5 8.48528 23.5 6Z" fill="#3EAE80"/>
<path d="M23.5 6C23.5 3.51472 25.5147 1.5 28 1.5C30.4853 1.5 32.5 3.51472 32.5 6C32.5 8.48528 30.4853 10.5 28 10.5C25.5147 10.5 23.5 8.48528 23.5 6Z" stroke="#F0F2FF"/>
<mask id="mask0_19_20845" style="mask-type:alpha" maskUnits="userSpaceOnUse" x="24" y="2" width="8" height="8">
<rect x="24" y="2" width="8" height="8" fill="#D9D9D9"/>
</mask>
<g mask="url(#mask0_19_20845)">
<path d="M27.3333 7.46646L26 6.13313L26.4667 5.66646L27.3333 6.53313L29.5333 4.33313L30 4.7998L27.3333 7.46646Z" fill="#F0F2FF"/>
</g>
<defs>
<clipPath id="clip0_19_20845">
<rect x="1" y="1" width="32" height="32" rx="16" fill="white"/>
</clipPath>
</defs>
</svg>
