<svg width="100" height="82" viewBox="0 0 100 82" fill="none" xmlns="http://www.w3.org/2000/svg">
<path d="M98.2331 34.8677C97.6975 34.9867 97.2215 34.5106 97.3256 33.9602C97.7273 31.8475 97.9951 29.5266 97.9951 27.0271C97.9951 11.1227 93.264 0.5 80.7517 0.5C69.5041 0.5 64.4903 10.1408 64.4903 21.7604C64.4903 30.1961 68.79 38.7954 77.8654 42.9612C78.4754 43.2439 78.4605 44.1366 77.8357 44.3746C75.485 45.2673 73.0599 45.6095 70.7539 45.6095C61.7379 45.4309 54.5817 36.4596 54.5817 27.6966C54.5817 27.6222 54.5817 27.5627 54.5817 27.4883C54.5817 27.3247 54.5817 27.1759 54.5817 27.0271C54.5817 11.1525 49.9398 1.89851 37.3979 0.5C37.3681 0.5 37.3235 0.5 37.2937 0.5H32.8006C32.8006 0.5 32.756 0.5 32.7411 0.5C16.0333 1.39267 0.813354 14.0834 0.813354 29.6158C0.813354 48.6445 15.7358 56.5 27.0727 56.5C34.7198 56.5 42.9324 53.2566 48.333 46.4724C48.6455 46.0707 49.2406 46.0856 49.553 46.4724C54.9239 53.4203 63.4042 56.4851 70.4861 56.4851C78.4159 56.4851 86.9706 53.0037 92.3415 45.6987C92.4754 45.5202 92.6688 45.4012 92.892 45.4012C94.5583 45.3119 96.299 45.0887 98.0844 44.8061C98.4414 44.7466 98.7092 44.449 98.739 44.0919L99.1853 35.6413C99.2151 35.1355 98.7539 34.7487 98.2629 34.8528C98.2629 34.8528 98.2629 34.8528 98.248 34.8528L98.2331 34.8677ZM27.3405 45.6095C18.3245 45.4309 11.8824 38.3789 11.8824 29.6158C11.8824 22.8464 15.4085 17.1929 20.5413 14.6041C21.1067 14.3215 21.7464 14.8124 21.6423 15.4224C21.2703 17.4309 21.0918 19.5436 21.0918 21.7455C21.0918 30.1812 25.3915 38.7806 34.4669 42.9463C35.0769 43.229 35.062 44.1217 34.4372 44.3597C32.0865 45.2524 29.6614 45.5946 27.3553 45.5946L27.3405 45.6095ZM43.2895 34.4065C43.1704 34.7933 42.7538 35.0016 42.367 34.8975C34.8686 32.9187 31.0897 26.8634 31.0897 21.5818C31.0897 14.7976 33.4999 11.4947 37.6061 11.4947C42.248 11.4947 44.2119 16.4044 44.2119 27.1312C44.2119 29.9431 43.9292 32.3831 43.2746 34.4065H43.2895ZM86.688 34.4065C86.569 34.7933 86.1524 35.0016 85.7655 34.8975C78.2671 32.9187 74.4882 26.8634 74.4882 21.5818C74.4882 14.7976 76.8984 11.4947 81.0047 11.4947C85.6465 11.4947 87.6104 16.4044 87.6104 27.1312C87.6104 29.9431 87.3277 32.3831 86.6731 34.4065H86.688Z" fill="#F30961"/>
<path d="M24.036 77.5V67.7H30.098V68.666H25.212V71.844H29.482V72.796H25.212V76.534H30.098V77.5H24.036ZM35.0183 77.668C34.309 77.668 33.6977 77.5047 33.1843 77.178C32.671 76.8513 32.2743 76.4127 31.9943 75.862C31.7143 75.3113 31.5743 74.6953 31.5743 74.014C31.5743 73.342 31.7097 72.7307 31.9803 72.18C32.2603 71.6293 32.657 71.1953 33.1703 70.878C33.6837 70.5513 34.3043 70.388 35.0323 70.388C35.6017 70.388 36.1057 70.5047 36.5443 70.738C36.983 70.9713 37.3237 71.298 37.5663 71.718V67.7H38.7423V77.5H37.6783L37.5663 76.352C37.3423 76.688 37.0203 76.9913 36.6003 77.262C36.1803 77.5327 35.653 77.668 35.0183 77.668ZM35.1443 76.646C35.6577 76.646 36.0917 76.5293 36.4463 76.296C36.801 76.0533 37.067 75.736 37.2443 75.344C37.431 74.9427 37.5243 74.504 37.5243 74.028C37.5243 73.524 37.431 73.076 37.2443 72.684C37.0577 72.292 36.787 71.984 36.4323 71.76C36.0777 71.5267 35.6483 71.41 35.1443 71.41C34.6963 71.41 34.295 71.5173 33.9403 71.732C33.5857 71.9467 33.301 72.25 33.0863 72.642C32.881 73.0247 32.7783 73.4867 32.7783 74.028C32.7783 74.5693 32.8857 75.036 33.1003 75.428C33.315 75.82 33.5997 76.1233 33.9543 76.338C34.3183 76.5433 34.715 76.646 35.1443 76.646ZM43.8654 77.668C43.2307 77.668 42.6474 77.528 42.1154 77.248C41.5834 76.9587 41.1587 76.5433 40.8414 76.002C40.524 75.4513 40.3654 74.7887 40.3654 74.014C40.3654 73.2767 40.5194 72.6373 40.8274 72.096C41.1447 71.5547 41.5694 71.1347 42.1014 70.836C42.6427 70.5373 43.2494 70.388 43.9214 70.388C44.5654 70.388 45.1534 70.528 45.6854 70.808C46.2267 71.088 46.6607 71.4987 46.9874 72.04C47.314 72.5813 47.4774 73.2393 47.4774 74.014C47.4774 74.7233 47.3234 75.3533 47.0154 75.904C46.7074 76.4547 46.278 76.8887 45.7274 77.206C45.186 77.514 44.5654 77.668 43.8654 77.668ZM43.8654 76.646C44.3227 76.646 44.7334 76.5387 45.0974 76.324C45.4614 76.1 45.7507 75.792 45.9654 75.4C46.18 75.008 46.2874 74.546 46.2874 74.014C46.2874 73.51 46.194 73.062 46.0074 72.67C45.8207 72.278 45.55 71.97 45.1954 71.746C44.8407 71.522 44.4114 71.41 43.9074 71.41C43.394 71.41 42.96 71.5267 42.6054 71.76C42.26 71.9933 41.9987 72.306 41.8214 72.698C41.644 73.09 41.5554 73.5287 41.5554 74.014C41.5554 74.63 41.6674 75.134 41.8914 75.526C42.1154 75.9087 42.4047 76.1933 42.7594 76.38C43.114 76.5573 43.4827 76.646 43.8654 76.646ZM52.3146 77.668C51.6799 77.668 51.0966 77.528 50.5646 77.248C50.0326 76.9587 49.6079 76.5433 49.2906 76.002C48.9732 75.4513 48.8146 74.7887 48.8146 74.014C48.8146 73.2767 48.9686 72.6373 49.2766 72.096C49.5939 71.5547 50.0186 71.1347 50.5506 70.836C51.0919 70.5373 51.6986 70.388 52.3706 70.388C53.0146 70.388 53.6026 70.528 54.1346 70.808C54.6759 71.088 55.1099 71.4987 55.4366 72.04C55.7632 72.5813 55.9266 73.2393 55.9266 74.014C55.9266 74.7233 55.7726 75.3533 55.4646 75.904C55.1566 76.4547 54.7272 76.8887 54.1766 77.206C53.6352 77.514 53.0146 77.668 52.3146 77.668ZM52.3146 76.646C52.7719 76.646 53.1826 76.5387 53.5466 76.324C53.9106 76.1 54.1999 75.792 54.4146 75.4C54.6292 75.008 54.7366 74.546 54.7366 74.014C54.7366 73.51 54.6432 73.062 54.4566 72.67C54.2699 72.278 53.9992 71.97 53.6446 71.746C53.2899 71.522 52.8606 71.41 52.3566 71.41C51.8432 71.41 51.4092 71.5267 51.0546 71.76C50.7092 71.9933 50.4479 72.306 50.2706 72.698C50.0932 73.09 50.0046 73.5287 50.0046 74.014C50.0046 74.63 50.1166 75.134 50.3406 75.526C50.5646 75.9087 50.8539 76.1933 51.2086 76.38C51.5632 76.5573 51.9319 76.646 52.3146 76.646ZM57.5578 77.5V67.7H58.7338V73.482L61.5758 70.556H63.0178L59.9378 73.692L63.4098 77.5H61.9118L58.7338 73.902V77.5H57.5578ZM67.2286 77.668C66.5846 77.668 66.0013 77.5187 65.4786 77.22C64.9653 76.9213 64.5593 76.5013 64.2606 75.96C63.962 75.4093 63.8126 74.7653 63.8126 74.028C63.8126 73.3 63.9526 72.6653 64.2326 72.124C64.522 71.5733 64.9233 71.1487 65.4366 70.85C65.9593 70.542 66.566 70.388 67.2566 70.388C67.91 70.388 68.4793 70.5327 68.9646 70.822C69.45 71.1113 69.828 71.5033 70.0986 71.998C70.3786 72.4833 70.5186 73.0293 70.5186 73.636C70.5186 73.7667 70.5186 73.8693 70.5186 73.944C70.5186 74.0187 70.514 74.1353 70.5046 74.294H64.9746C65.0026 74.7513 65.11 75.162 65.2966 75.526C65.4926 75.8807 65.754 76.1607 66.0806 76.366C66.4166 76.5713 66.7993 76.674 67.2286 76.674C67.714 76.674 68.12 76.562 68.4466 76.338C68.7733 76.114 69.0113 75.8107 69.1606 75.428H70.3226C70.2013 75.8573 70.0006 76.24 69.7206 76.576C69.4406 76.912 69.0906 77.178 68.6706 77.374C68.26 77.57 67.7793 77.668 67.2286 77.668ZM64.9886 73.384H69.3566C69.3286 72.7587 69.114 72.2687 68.7126 71.914C68.3113 71.5593 67.8166 71.382 67.2286 71.382C66.6686 71.382 66.1693 71.5547 65.7306 71.9C65.3013 72.236 65.054 72.7307 64.9886 73.384ZM72.0773 77.5V70.556H73.1413L73.2393 71.886C73.454 71.4287 73.7807 71.0647 74.2193 70.794C74.658 70.5233 75.1993 70.388 75.8433 70.388V71.62H75.5213C74.756 71.62 74.1867 71.8253 73.8133 72.236C73.44 72.6467 73.2533 73.2347 73.2533 74V77.5H72.0773Z" fill="#ABACAD"/>
</svg>
