<svg width="100" height="57" viewBox="0 0 100 57" fill="none" xmlns="http://www.w3.org/2000/svg">
<path d="M98.2331 34.8677C97.6975 34.9867 97.2215 34.5106 97.3256 33.9602C97.7273 31.8475 97.9951 29.5266 97.9951 27.0271C97.9951 11.1227 93.264 0.5 80.7517 0.5C69.5041 0.5 64.4903 10.1408 64.4903 21.7604C64.4903 30.1961 68.79 38.7954 77.8654 42.9612C78.4754 43.2439 78.4605 44.1366 77.8357 44.3746C75.485 45.2673 73.0599 45.6095 70.7539 45.6095C61.7379 45.4309 54.5817 36.4596 54.5817 27.6966C54.5817 27.6222 54.5817 27.5627 54.5817 27.4883C54.5817 27.3247 54.5817 27.1759 54.5817 27.0271C54.5817 11.1525 49.9398 1.89851 37.3979 0.5C37.3681 0.5 37.3235 0.5 37.2937 0.5H32.8006C32.8006 0.5 32.756 0.5 32.7411 0.5C16.0333 1.39267 0.813354 14.0834 0.813354 29.6158C0.813354 48.6445 15.7358 56.5 27.0727 56.5C34.7198 56.5 42.9324 53.2566 48.333 46.4724C48.6455 46.0707 49.2406 46.0856 49.553 46.4724C54.9239 53.4203 63.4042 56.4851 70.4861 56.4851C78.4159 56.4851 86.9706 53.0037 92.3415 45.6987C92.4754 45.5202 92.6688 45.4012 92.892 45.4012C94.5583 45.3119 96.299 45.0887 98.0844 44.8061C98.4414 44.7466 98.7092 44.449 98.739 44.0919L99.1853 35.6413C99.2151 35.1355 98.7539 34.7487 98.2629 34.8528C98.2629 34.8528 98.2629 34.8528 98.248 34.8528L98.2331 34.8677ZM27.3405 45.6095C18.3245 45.4309 11.8824 38.3789 11.8824 29.6158C11.8824 22.8464 15.4085 17.1929 20.5413 14.6041C21.1067 14.3215 21.7464 14.8124 21.6423 15.4224C21.2703 17.4309 21.0918 19.5436 21.0918 21.7455C21.0918 30.1812 25.3915 38.7806 34.4669 42.9463C35.0769 43.229 35.062 44.1217 34.4372 44.3597C32.0865 45.2524 29.6614 45.5946 27.3553 45.5946L27.3405 45.6095ZM43.2895 34.4065C43.1704 34.7933 42.7538 35.0016 42.367 34.8975C34.8686 32.9187 31.0897 26.8634 31.0897 21.5818C31.0897 14.7976 33.4999 11.4947 37.6061 11.4947C42.248 11.4947 44.2119 16.4044 44.2119 27.1312C44.2119 29.9431 43.9292 32.3831 43.2746 34.4065H43.2895ZM86.688 34.4065C86.569 34.7933 86.1524 35.0016 85.7655 34.8975C78.2671 32.9187 74.4882 26.8634 74.4882 21.5818C74.4882 14.7976 76.8984 11.4947 81.0047 11.4947C85.6465 11.4947 87.6104 16.4044 87.6104 27.1312C87.6104 29.9431 87.3277 32.3831 86.6731 34.4065H86.688Z" fill="#F30961"/>
</svg>
