<svg width="65" height="90" viewBox="0 0 65 90" fill="none" xmlns="http://www.w3.org/2000/svg">
<g clip-path="url(#clip0_19_21129)">
<path d="M59.7458 41.4537C58.2281 39.9359 56.5018 38.7714 54.6539 37.9429C54.6307 37.9313 54.6075 37.9255 54.5902 37.914C54.3526 37.8097 54.1209 37.7112 53.8776 37.6185C53.8197 37.5953 53.7618 37.5721 53.7038 37.5548C53.4953 37.4737 53.281 37.3983 53.0666 37.3288C52.9913 37.3056 52.9102 37.2767 52.8291 37.2535C52.638 37.1898 52.441 37.1318 52.244 37.0797C52.1514 37.0507 52.0529 37.0276 51.9602 37.0044C51.7806 36.958 51.601 36.9175 51.4215 36.8769C51.3114 36.8538 51.2013 36.8306 51.0971 36.8074C50.9291 36.7727 50.7669 36.7437 50.5989 36.7147C50.4772 36.6915 50.3498 36.6684 50.2281 36.651C50.0775 36.6278 49.9327 36.6104 49.7821 36.5931C49.6431 36.5757 49.504 36.5583 49.3592 36.5409C49.2376 36.5293 49.1159 36.5235 48.9943 36.5119C48.8263 36.5004 48.6583 36.483 48.4961 36.4772C48.4729 36.4772 48.4497 36.4772 48.4266 36.4772C48.1717 36.4656 47.9226 36.4598 47.6677 36.4598C47.4012 36.4598 47.129 36.4656 46.8567 36.483C46.6134 36.4946 46.3643 36.5119 46.121 36.5351C45.6749 36.5757 45.2347 36.6336 44.7944 36.7089C44.7307 36.7205 44.6728 36.7263 44.6091 36.7379C44.1978 36.8132 43.7865 36.9059 43.3752 37.0102C43.2999 37.0276 43.2188 37.0507 43.1435 37.0739C42.738 37.184 42.3383 37.3056 41.9443 37.4505C41.8806 37.4737 41.8169 37.4968 41.7532 37.5258C41.3708 37.6706 40.9885 37.8213 40.612 37.9951C40.5714 38.0124 40.5367 38.0298 40.4961 38.0472C40.108 38.2268 39.7315 38.4238 39.3549 38.6323C39.2796 38.6729 39.1985 38.7192 39.1232 38.7598C38.7641 38.9684 38.4107 39.1885 38.0689 39.426C37.9878 39.484 37.9067 39.5419 37.8256 39.5941C37.4838 39.8374 37.1421 40.0923 36.8119 40.3646C36.7481 40.4167 36.6844 40.4747 36.6207 40.5326C36.2905 40.8165 35.9603 41.1119 35.6475 41.4248C35.6359 41.4364 35.6185 41.4479 35.607 41.4653L33.3072 43.7653C32.809 44.2636 32.0038 44.2693 31.4998 43.7827L21.1248 33.3951C20.644 32.8968 20.644 32.1031 21.1248 31.6049L27.7576 24.9714L31.4882 21.2405C31.9922 20.7364 32.809 20.7364 33.3188 21.2405L35.8271 23.749C35.8387 23.7606 35.8503 23.7722 35.8676 23.7838C36.1804 24.0966 36.5048 24.3863 36.8292 24.6644C36.893 24.7165 36.9509 24.7687 37.0146 24.8208C37.339 25.0873 37.6692 25.3422 38.011 25.5798C38.0921 25.6377 38.1732 25.6956 38.2543 25.7478C38.5903 25.9795 38.932 26.1939 39.2854 26.3966C39.3665 26.443 39.4534 26.4893 39.5345 26.5357C39.8879 26.7326 40.247 26.9238 40.6178 27.0918C40.6815 27.1208 40.7394 27.144 40.8031 27.1729C41.1391 27.3236 41.4809 27.4626 41.8285 27.5959C41.9154 27.6306 41.9965 27.6596 42.0834 27.6943C42.4541 27.8276 42.8249 27.9377 43.2014 28.042C43.2999 28.0709 43.3983 28.0941 43.4968 28.1231C43.8792 28.2216 44.2673 28.3085 44.6554 28.378C44.7307 28.3896 44.806 28.4011 44.8813 28.4185C45.3042 28.488 45.7329 28.546 46.1615 28.5865C46.1731 28.5923 46.1789 28.5923 46.1905 28.5923C46.6887 28.6329 47.1811 28.6619 47.6851 28.6619C47.9342 28.6619 48.189 28.6503 48.4381 28.6387C48.4555 28.6387 48.4787 28.6387 48.4961 28.6387C48.6814 28.6271 48.8668 28.6155 49.0522 28.5981C49.1565 28.5923 49.2607 28.5807 49.3592 28.575C49.5214 28.5576 49.6894 28.5344 49.8516 28.517C49.9732 28.4996 50.1007 28.4823 50.2223 28.4649C50.373 28.4417 50.5236 28.4185 50.6742 28.3896C50.8132 28.3664 50.9522 28.3374 51.0913 28.3085C51.2303 28.2795 51.3693 28.2505 51.5084 28.2158C51.659 28.181 51.8154 28.1404 51.966 28.0999C52.0876 28.0651 52.2151 28.0362 52.3367 28.0014C52.5105 27.9493 52.6843 27.8971 52.8581 27.8392C52.9566 27.8044 53.0608 27.7755 53.1593 27.7407C53.3968 27.6596 53.6343 27.5669 53.8718 27.4742C53.9066 27.4626 53.9414 27.451 53.9761 27.4336C54.2542 27.3236 54.5264 27.2019 54.7987 27.0745C54.8045 27.0687 54.8103 27.0687 54.8219 27.0629C54.8277 27.0629 54.8277 27.0571 54.8335 27.0571C56.5424 26.2518 58.1412 25.151 59.5488 23.7374L63.3605 19.9254C63.7603 19.5256 64.0325 19.0448 64.1947 18.5407C64.2237 18.448 64.2584 18.3553 64.2758 18.2626C64.3048 18.1526 64.3164 18.0367 64.3337 17.9208C64.3453 17.8455 64.3511 17.776 64.3569 17.7007C64.3627 17.579 64.3685 17.4574 64.3685 17.3357C64.3685 17.2894 64.3569 17.2372 64.3569 17.1909C64.3395 16.9475 64.2932 16.7042 64.2179 16.4667C64.2005 16.4088 64.1889 16.3508 64.1658 16.2987C64.1252 16.1828 64.0731 16.0727 64.0209 15.9627C63.9862 15.8931 63.9514 15.8236 63.9109 15.7541C63.8529 15.6498 63.795 15.5513 63.7255 15.4528C63.6734 15.3833 63.6154 15.3138 63.5575 15.2443C63.4938 15.169 63.4359 15.0821 63.3663 15.0067L49.869 1.50806C49.1854 0.841812 48.2933 0.5 47.407 0.5C46.5149 0.5 45.6228 0.841812 44.945 1.51964L35.5258 10.9398L33.0117 13.4541C32.5136 13.9465 31.7199 13.9523 31.216 13.4657L19.2827 1.53123C18.6049 0.853399 17.7128 0.511587 16.8265 0.511587C15.9344 0.511587 15.0481 0.853399 14.3703 1.53123L1.15101 14.7518C0.473249 15.4297 0.13147 16.3161 0.13147 17.2082C0.13147 18.1004 0.467456 18.9868 1.15101 19.6647L4.58039 23.0944L13.1017 31.6165C13.5883 32.1205 13.5825 32.9258 13.0843 33.4241L1.16839 45.3469C1.09308 45.4222 1.04095 45.5091 0.971435 45.5845C-0.175552 46.9517 -0.117623 48.9794 1.1626 50.2655L14.3761 63.4804C14.9206 64.0249 15.5984 64.3378 16.2993 64.4479C16.4731 64.4768 16.6527 64.5 16.8323 64.5C17.7244 64.5 18.6107 64.1582 19.2885 63.4804L31.216 51.5517C31.7199 51.065 32.5251 51.0708 33.0233 51.5691L42.3672 60.9081L44.9219 63.463C45.5996 64.1408 46.4917 64.4826 47.378 64.4826C48.2701 64.4826 49.1565 64.1408 49.8342 63.463L63.3316 49.9643C64.6871 48.6086 64.6871 46.4071 63.3316 45.0457L59.7458 41.4537ZM40.0617 52.0441L36.725 48.7013C36.2268 48.2031 36.221 47.4036 36.7018 46.8996L38.8741 44.727C39.1522 44.4489 39.436 44.194 39.7373 43.9449C39.8473 43.8522 39.969 43.7653 40.0848 43.6784C40.2702 43.5336 40.4556 43.3945 40.6467 43.2613C40.7974 43.157 40.9538 43.0643 41.1102 42.9658C41.2724 42.8615 41.4404 42.7631 41.6084 42.6704C41.7821 42.5719 41.9617 42.4792 42.1413 42.3923C42.2977 42.317 42.4541 42.2416 42.6163 42.1663C42.8075 42.0794 42.9986 41.9983 43.1956 41.923C43.352 41.8651 43.5084 41.8071 43.6706 41.755C43.8676 41.6855 44.0703 41.6217 44.2731 41.5638C44.4411 41.5175 44.6091 41.4769 44.7771 41.4364C44.974 41.39 45.171 41.3379 45.3737 41.3031C45.5823 41.2626 45.7908 41.2394 46.0051 41.2104C46.1731 41.1872 46.3353 41.1583 46.4975 41.1409C46.8509 41.1061 47.2158 41.0888 47.575 41.0888C47.6098 41.0888 47.6445 41.083 47.6793 41.083C51.0044 41.083 54.1267 42.3807 56.4786 44.727L58.3439 46.5867C58.8479 47.0907 58.8479 47.9134 58.3439 48.4174L48.3107 58.4517C47.8125 58.9499 47.0073 58.9557 46.5033 58.469L40.0617 52.0441ZM6.14446 16.3103L12.4355 10.0186L15.9112 6.54255C16.4152 6.03852 17.232 6.03852 17.736 6.54255L18.4137 7.22038L27.7692 16.5826C28.2732 17.0866 28.2732 17.8977 27.775 18.4017L18.014 28.1636C17.5101 28.6619 16.6991 28.6619 16.1951 28.1578L6.15604 18.1178C5.65786 17.6196 5.65786 16.8143 6.14446 16.3103ZM17.7534 58.469C17.2494 58.9731 16.4326 58.9731 15.9228 58.469L6.17342 48.7245C5.66945 48.2205 5.66945 47.4036 6.17342 46.8996L16.2067 36.8653C16.7106 36.3613 17.5274 36.3613 18.0314 36.8653L25.5795 44.4084L27.7924 46.6215C28.2906 47.1255 28.2906 47.9366 27.7924 48.4406L26.7149 49.5182L17.7534 58.469ZM42.3035 10.7196L46.4917 6.53096C46.9957 6.02693 47.8125 6.02693 48.3223 6.53096L58.3555 16.5652C58.8595 17.0692 58.8595 17.8861 58.3555 18.3959L57.0869 19.6647L56.2759 20.4757C55.9978 20.7538 55.714 21.0087 55.4127 21.2579C55.4012 21.2694 55.3896 21.281 55.378 21.2868C55.3259 21.3274 55.2679 21.3621 55.2216 21.4027C53.084 23.1002 50.4598 24.0271 47.6909 24.0271H47.6851C47.3838 24.0271 47.0884 24.0039 46.793 23.9808C46.6018 23.9692 46.4106 23.946 46.2195 23.9286C46.0109 23.9054 45.8024 23.8707 45.5938 23.8359C45.4316 23.807 45.2694 23.778 45.113 23.7432C44.8813 23.6911 44.6554 23.6332 44.4237 23.5694C44.2904 23.5289 44.1514 23.4941 44.0182 23.4536C43.7749 23.3782 43.5316 23.2856 43.2941 23.1929C43.1782 23.1465 43.0624 23.106 42.9523 23.0596C42.6974 22.9495 42.4483 22.8279 42.205 22.7062C42.1123 22.6599 42.0139 22.6135 41.9212 22.5614C41.6547 22.4165 41.394 22.2543 41.1391 22.0921C41.0754 22.0516 41.0059 22.011 40.9422 21.9704C40.2934 21.5359 39.6851 21.0319 39.1232 20.4699L36.725 18.0715C36.2557 17.5674 36.2615 16.7911 36.7424 16.2929L42.3035 10.7196Z" fill="#FA5D94"/>
</g>
<path d="M3.786 85.5V75.7H9.848V76.666H4.962V79.844H9.232V80.796H4.962V84.534H9.848V85.5H3.786ZM14.7683 85.668C14.059 85.668 13.4477 85.5047 12.9343 85.178C12.421 84.8513 12.0243 84.4127 11.7443 83.862C11.4643 83.3113 11.3243 82.6953 11.3243 82.014C11.3243 81.342 11.4597 80.7307 11.7303 80.18C12.0103 79.6293 12.407 79.1953 12.9203 78.878C13.4337 78.5513 14.0543 78.388 14.7823 78.388C15.3517 78.388 15.8557 78.5047 16.2943 78.738C16.733 78.9713 17.0737 79.298 17.3163 79.718V75.7H18.4923V85.5H17.4283L17.3163 84.352C17.0923 84.688 16.7703 84.9913 16.3503 85.262C15.9303 85.5327 15.403 85.668 14.7683 85.668ZM14.8943 84.646C15.4077 84.646 15.8417 84.5293 16.1963 84.296C16.551 84.0533 16.817 83.736 16.9943 83.344C17.181 82.9427 17.2743 82.504 17.2743 82.028C17.2743 81.524 17.181 81.076 16.9943 80.684C16.8077 80.292 16.537 79.984 16.1823 79.76C15.8277 79.5267 15.3983 79.41 14.8943 79.41C14.4463 79.41 14.045 79.5173 13.6903 79.732C13.3357 79.9467 13.051 80.25 12.8363 80.642C12.631 81.0247 12.5283 81.4867 12.5283 82.028C12.5283 82.5693 12.6357 83.036 12.8503 83.428C13.065 83.82 13.3497 84.1233 13.7043 84.338C14.0683 84.5433 14.465 84.646 14.8943 84.646ZM22.9574 85.668C22.416 85.668 21.94 85.5607 21.5294 85.346C21.128 85.122 20.8154 84.786 20.5914 84.338C20.3674 83.8807 20.2554 83.3067 20.2554 82.616V78.556H21.4314V82.49C21.4314 83.2087 21.5807 83.75 21.8794 84.114C22.178 84.478 22.626 84.66 23.2234 84.66C23.8207 84.66 24.3154 84.4453 24.7074 84.016C25.1087 83.5773 25.3094 82.9567 25.3094 82.154V78.556H26.4854V85.5H25.4214L25.3514 84.254C25.1274 84.6927 24.8054 85.038 24.3854 85.29C23.9654 85.542 23.4894 85.668 22.9574 85.668ZM31.6131 85.668C30.9597 85.668 30.3671 85.5187 29.8351 85.22C29.3124 84.9213 28.8971 84.5013 28.5891 83.96C28.2811 83.4093 28.1271 82.7653 28.1271 82.028C28.1271 81.3093 28.2764 80.6793 28.5751 80.138C28.8737 79.5873 29.2844 79.158 29.8071 78.85C30.3297 78.542 30.9317 78.388 31.6131 78.388C32.4344 78.388 33.1251 78.6027 33.6851 79.032C34.2544 79.4613 34.6137 80.0353 34.7631 80.754H33.5591C33.4657 80.3247 33.2371 79.9933 32.8731 79.76C32.5091 79.5173 32.0844 79.396 31.5991 79.396C31.1044 79.396 30.6891 79.5173 30.3531 79.76C30.0171 80.0027 29.7604 80.3247 29.5831 80.726C29.4151 81.1273 29.3311 81.5613 29.3311 82.028C29.3311 82.5413 29.4291 82.9987 29.6251 83.4C29.8211 83.8013 30.0871 84.114 30.4231 84.338C30.7684 84.562 31.1604 84.674 31.5991 84.674C32.0844 84.674 32.5091 84.5573 32.8731 84.324C33.2371 84.0813 33.4657 83.7407 33.5591 83.302H34.7631C34.6697 83.7687 34.4784 84.1793 34.1891 84.534C33.8997 84.8887 33.5357 85.1687 33.0971 85.374C32.6584 85.57 32.1637 85.668 31.6131 85.668ZM36.4755 85.5V75.7H39.4855C40.6428 75.7 41.5901 75.9007 42.3275 76.302C43.0741 76.694 43.6248 77.2587 43.9795 77.996C44.3435 78.724 44.5255 79.6013 44.5255 80.628C44.5255 81.636 44.3435 82.504 43.9795 83.232C43.6248 83.96 43.0741 84.52 42.3275 84.912C41.5901 85.304 40.6428 85.5 39.4855 85.5H36.4755ZM37.6515 84.52H39.4575C40.3908 84.52 41.1375 84.3707 41.6975 84.072C42.2668 83.764 42.6775 83.3207 42.9295 82.742C43.1815 82.154 43.3075 81.4493 43.3075 80.628C43.3075 79.2933 42.9995 78.304 42.3835 77.66C41.7675 77.0067 40.7921 76.68 39.4575 76.68H37.6515V84.52ZM48.4635 85.668C47.9875 85.668 47.5535 85.5887 47.1615 85.43C46.7695 85.2713 46.4568 85.0333 46.2235 84.716C45.9995 84.3893 45.8875 83.9927 45.8875 83.526C45.8875 82.9847 46.0275 82.5553 46.3075 82.238C46.5875 81.9113 46.9562 81.678 47.4135 81.538C47.8802 81.3887 48.3795 81.314 48.9115 81.314H50.7875C50.7875 80.8287 50.7035 80.446 50.5355 80.166C50.3768 79.886 50.1668 79.6853 49.9055 79.564C49.6442 79.4427 49.3548 79.382 49.0375 79.382C48.5802 79.382 48.1835 79.494 47.8475 79.718C47.5208 79.9327 47.3155 80.2687 47.2315 80.726H46.0275C46.0742 80.222 46.2422 79.7973 46.5315 79.452C46.8208 79.1067 47.1848 78.8453 47.6235 78.668C48.0715 78.4813 48.5428 78.388 49.0375 78.388C49.7375 78.388 50.3022 78.5187 50.7315 78.78C51.1608 79.032 51.4735 79.3727 51.6695 79.802C51.8655 80.2313 51.9635 80.7073 51.9635 81.23V83.358C51.9635 83.7033 52.0055 83.9647 52.0895 84.142C52.1735 84.3193 52.3882 84.4267 52.7335 84.464V85.5C52.4255 85.5 52.1455 85.4627 51.8935 85.388C51.6415 85.304 51.4268 85.1733 51.2495 84.996C51.0815 84.8093 50.9602 84.5667 50.8855 84.268C50.6522 84.66 50.3302 84.9913 49.9195 85.262C49.5182 85.5327 49.0328 85.668 48.4635 85.668ZM48.6455 84.674C49.1122 84.674 49.5042 84.5573 49.8215 84.324C50.1388 84.0813 50.3768 83.7733 50.5355 83.4C50.7035 83.0267 50.7875 82.6393 50.7875 82.238V82.224H49.0095C48.6828 82.224 48.3748 82.2613 48.0855 82.336C47.7962 82.4013 47.5628 82.5273 47.3855 82.714C47.2082 82.8913 47.1195 83.1433 47.1195 83.47C47.1195 83.89 47.2688 84.198 47.5675 84.394C47.8662 84.5807 48.2255 84.674 48.6455 84.674ZM54.7025 88.58L56.2425 85.22L53.2605 78.556H54.5345L56.8305 83.96L59.2665 78.556H60.4845L55.9345 88.58H54.7025Z" fill="#ABACAD"/>
<defs>
<clipPath id="clip0_19_21129">
<rect width="64.237" height="64" fill="white" transform="translate(0.13147 0.5)"/>
</clipPath>
</defs>
</svg>
