<svg width="68" height="65" viewBox="0 0 68 65" fill="none" xmlns="http://www.w3.org/2000/svg">
<path d="M55.3834 39.4909C55.3022 39.6918 55.2074 39.8927 55.1262 40.0802C48.8716 56.1532 23.1086 58.4704 17.9641 40.4151C17.4768 38.5131 20.577 39.5043 21.633 39.5847C32.6394 40.4285 43.4022 37.8836 51.0512 29.5926C55.5188 24.7573 57.8203 18.087 55.0043 11.8454C52.4592 6.07248 46.6513 2.28193 40.5727 1.00949C32.6936 -0.637991 24.6249 1.83993 18.3026 6.56807C14.8266 9.22334 11.7775 12.3845 9.25914 15.944L20.6988 20.3373C20.6988 20.3373 26.6014 14.0956 30.9878 12.9571C37.4048 10.5059 48.0187 14.417 42.2921 22.2124C31.2315 33.1421 10.112 26.4718 0.5 18.9175C0.743686 23.0831 -0.0550615 28.6282 1.97565 32.6465C2.96393 34.6288 4.68327 35.0306 5.02172 37.4684C9.27268 71.5297 58.7815 73.9942 67.5 41.4866C63.5063 40.683 59.4178 40.1606 55.3834 39.4909Z" fill="#FFBF19"/>
</svg>
