<svg width="68" height="90" viewBox="0 0 68 90" fill="none" xmlns="http://www.w3.org/2000/svg">
<path d="M55.3834 39.4909C55.3022 39.6918 55.2074 39.8927 55.1262 40.0802C48.8716 56.1532 23.1086 58.4704 17.9641 40.4151C17.4768 38.5131 20.577 39.5043 21.633 39.5847C32.6394 40.4285 43.4022 37.8836 51.0512 29.5926C55.5188 24.7573 57.8203 18.087 55.0043 11.8454C52.4592 6.07248 46.6513 2.28193 40.5727 1.00949C32.6936 -0.637991 24.6249 1.83993 18.3026 6.56807C14.8266 9.22334 11.7775 12.3845 9.25914 15.944L20.6988 20.3373C20.6988 20.3373 26.6014 14.0956 30.9878 12.9571C37.4048 10.5059 48.0187 14.417 42.2921 22.2124C31.2315 33.1421 10.112 26.4718 0.5 18.9175C0.743686 23.0831 -0.0550615 28.6282 1.97565 32.6465C2.96393 34.6288 4.68327 35.0306 5.02172 37.4684C9.27268 71.5297 58.7815 73.9942 67.5 41.4866C63.5063 40.683 59.4178 40.1606 55.3834 39.4909Z" fill="#FFBF19"/>
<path d="M11.036 85.5V75.7H17.098V76.666H12.212V79.844H16.482V80.796H12.212V84.534H17.098V85.5H11.036ZM22.0183 85.668C21.309 85.668 20.6977 85.5047 20.1843 85.178C19.671 84.8513 19.2743 84.4127 18.9943 83.862C18.7143 83.3113 18.5743 82.6953 18.5743 82.014C18.5743 81.342 18.7097 80.7307 18.9803 80.18C19.2603 79.6293 19.657 79.1953 20.1703 78.878C20.6837 78.5513 21.3043 78.388 22.0323 78.388C22.6017 78.388 23.1057 78.5047 23.5443 78.738C23.983 78.9713 24.3237 79.298 24.5663 79.718V75.7H25.7423V85.5H24.6783L24.5663 84.352C24.3423 84.688 24.0203 84.9913 23.6003 85.262C23.1803 85.5327 22.653 85.668 22.0183 85.668ZM22.1443 84.646C22.6577 84.646 23.0917 84.5293 23.4463 84.296C23.801 84.0533 24.067 83.736 24.2443 83.344C24.431 82.9427 24.5243 82.504 24.5243 82.028C24.5243 81.524 24.431 81.076 24.2443 80.684C24.0577 80.292 23.787 79.984 23.4323 79.76C23.0777 79.5267 22.6483 79.41 22.1443 79.41C21.6963 79.41 21.295 79.5173 20.9403 79.732C20.5857 79.9467 20.301 80.25 20.0863 80.642C19.881 81.0247 19.7783 81.4867 19.7783 82.028C19.7783 82.5693 19.8857 83.036 20.1003 83.428C20.315 83.82 20.5997 84.1233 20.9543 84.338C21.3183 84.5433 21.715 84.646 22.1443 84.646ZM30.2074 85.668C29.666 85.668 29.19 85.5607 28.7794 85.346C28.378 85.122 28.0654 84.786 27.8414 84.338C27.6174 83.8807 27.5054 83.3067 27.5054 82.616V78.556H28.6814V82.49C28.6814 83.2087 28.8307 83.75 29.1294 84.114C29.428 84.478 29.876 84.66 30.4734 84.66C31.0707 84.66 31.5654 84.4453 31.9574 84.016C32.3587 83.5773 32.5594 82.9567 32.5594 82.154V78.556H33.7354V85.5H32.6714L32.6014 84.254C32.3774 84.6927 32.0554 85.038 31.6354 85.29C31.2154 85.542 30.7394 85.668 30.2074 85.668ZM35.6711 85.5V75.7H36.8471V79.746C37.0804 79.3167 37.4117 78.9853 37.8411 78.752C38.2704 78.5093 38.7371 78.388 39.2411 78.388C40.0437 78.388 40.6877 78.64 41.1731 79.144C41.6584 79.6387 41.9011 80.404 41.9011 81.44V85.5H40.7391V81.566C40.7391 80.8473 40.5897 80.306 40.2911 79.942C40.0017 79.578 39.5677 79.396 38.9891 79.396C38.3824 79.396 37.8737 79.6153 37.4631 80.054C37.0524 80.4833 36.8471 81.0993 36.8471 81.902V85.5H35.6711ZM46.8888 85.668C46.2541 85.668 45.6708 85.528 45.1388 85.248C44.6068 84.9587 44.1821 84.5433 43.8648 84.002C43.5475 83.4513 43.3888 82.7887 43.3888 82.014C43.3888 81.2767 43.5428 80.6373 43.8508 80.096C44.1681 79.5547 44.5928 79.1347 45.1248 78.836C45.6661 78.5373 46.2728 78.388 46.9448 78.388C47.5888 78.388 48.1768 78.528 48.7088 78.808C49.2501 79.088 49.6841 79.4987 50.0108 80.04C50.3375 80.5813 50.5008 81.2393 50.5008 82.014C50.5008 82.7233 50.3468 83.3533 50.0388 83.904C49.7308 84.4547 49.3015 84.8887 48.7508 85.206C48.2095 85.514 47.5888 85.668 46.8888 85.668ZM46.8888 84.646C47.3461 84.646 47.7568 84.5387 48.1208 84.324C48.4848 84.1 48.7741 83.792 48.9888 83.4C49.2035 83.008 49.3108 82.546 49.3108 82.014C49.3108 81.51 49.2175 81.062 49.0308 80.67C48.8441 80.278 48.5735 79.97 48.2188 79.746C47.8641 79.522 47.4348 79.41 46.9308 79.41C46.4175 79.41 45.9835 79.5267 45.6288 79.76C45.2835 79.9933 45.0221 80.306 44.8448 80.698C44.6675 81.09 44.5788 81.5287 44.5788 82.014C44.5788 82.63 44.6908 83.134 44.9148 83.526C45.1388 83.9087 45.4281 84.1933 45.7828 84.38C46.1375 84.5573 46.5061 84.646 46.8888 84.646ZM54.6026 85.5C53.9679 85.5 53.4686 85.346 53.1046 85.038C52.7406 84.73 52.5586 84.1747 52.5586 83.372V79.55H51.3546V78.556H52.5586V76.89H53.7346V78.556H55.6806V79.55H53.7346V83.372C53.7346 83.8107 53.8232 84.1093 54.0006 84.268C54.1779 84.4173 54.4906 84.492 54.9386 84.492H55.6806V85.5H54.6026Z" fill="#ABACAD"/>
</svg>
