<svg width="64" height="65" viewBox="0 0 64 65" fill="none" xmlns="http://www.w3.org/2000/svg">
<path fill-rule="evenodd" clip-rule="evenodd" d="M59.0927 16.4429C61.1281 20.0986 62.4131 24.1279 62.8716 28.2921C63.5418 34.6944 62.2223 41.1481 59.0945 46.7652C55.9668 52.3822 51.1846 56.8864 45.4062 59.6577C42.7171 60.9122 39.9092 61.852 36.8596 61.6489C36.2028 61.6217 35.5501 61.5296 34.9111 61.3741C31.2675 60.3865 30.0161 58.8214 30.119 55.0779C30.1626 53.4889 29.8497 52.7163 28.1071 52.2265C24.6854 51.2707 21.9329 49.0206 19.4418 46.5276C15.3507 42.4297 11.7665 37.9893 10.4358 32.1391C8.65366 24.2579 13.0101 16.8824 20.5349 15.2656C24.1784 14.4691 27.5883 15.397 30.7567 17.2568C31.1213 17.518 31.5539 17.6666 32.0013 17.6843C32.4487 17.702 32.8915 17.588 33.2755 17.3564C35.6794 16.1178 38.1666 15.1421 40.9389 14.9948C46.8597 14.6722 51.0418 17.4679 53.022 23.111C53.7913 25.1891 54.124 27.405 53.9993 29.6189C53.8745 31.8328 53.295 33.9967 52.2973 35.9742C49.9248 40.9563 46.4662 45.3366 42.1785 48.7897C40.2134 50.4525 37.9181 51.6744 35.4458 52.3738C34.5547 52.6287 34.3091 52.9433 34.2814 53.8234C34.1745 56.9258 35.4299 58.0727 38.5745 57.4833C43.0735 56.6439 47.2058 54.43 50.4082 51.1433C58.2696 43.2421 60.9032 33.7839 57.3785 23.1707C53.7904 12.4062 45.9488 6.26929 34.7804 4.80376C20.5111 2.91609 7.30317 13.4695 5.43782 28.0054C4.2497 37.4238 7.33089 45.2772 14.1507 51.7406C15.0656 52.6048 15.8616 53.015 17.2398 52.4854C19.8656 51.4778 22.6378 52.5371 24.1943 54.7991C24.9302 55.863 25.3148 57.1327 25.2934 58.4285C25.2721 59.7243 24.846 60.9805 24.0755 62.0193C23.2685 63.0776 22.15 63.8529 20.8792 64.2348C19.6085 64.6166 18.2504 64.5855 16.9982 64.1459C15.7692 63.7385 14.7113 62.9287 13.9934 61.846C13.2756 60.7632 12.9391 59.4698 13.0378 58.1722C13.1329 56.7625 12.6933 55.97 11.6675 55.0301C2.26157 46.4161 -1.07705 35.6676 2.16256 23.4136L2.2695 23.0154C3.33559 18.9714 5.19071 15.181 7.72694 11.8646C10.1853 8.75892 13.2658 6.20804 16.7685 4.37764L17.1962 4.15461C18.6223 3.33592 20.1354 2.68133 21.7071 2.20322C23.3219 1.65673 24.9773 1.23992 26.6576 0.956722C28.6816 0.615887 30.7327 0.465242 32.7844 0.506718C35.1331 0.533061 37.4693 0.854135 39.7388 1.4625C43.8281 2.54215 47.6634 4.4278 51.022 7.01002C54.3129 9.57959 57.0573 12.7872 59.0927 16.4429ZM21.1527 58.1324C21.0656 56.9258 20.2656 56.2806 18.9626 56.2169C17.7982 56.4638 16.9507 57.1607 17.0774 58.4869C17.084 58.7545 17.1458 59.0178 17.2591 59.26C17.3724 59.5022 17.5346 59.7181 17.7354 59.8938C17.9363 60.0695 18.1713 60.2012 18.4255 60.2806C18.6797 60.3599 18.9476 60.3851 19.2121 60.3546C20.5468 60.2869 21.2438 59.4227 21.1527 58.1324ZM14.816 32.5135C17.2438 39.1522 21.8062 44.1143 27.8458 47.6746C30.0596 48.9808 32.4953 49.3153 34.8992 48.2242C42.5745 44.7196 47.5052 38.7141 49.7032 30.6736C50.725 26.946 49.5923 23.2344 46.5349 20.5742C43.624 18.0453 40.3606 18.9732 37.1923 20.1122C37.1248 20.1368 37.0584 20.1639 36.992 20.191C36.8754 20.2387 36.759 20.2863 36.6379 20.3193C35.5012 20.6379 35.224 21.0321 36.0161 22.195C38.123 25.2137 39.521 28.547 39.624 32.3064C39.7747 34.4461 39.1842 36.5723 37.9527 38.3238C37.1488 39.4469 36.0715 39.869 34.8834 39.0487C33.7943 38.288 33.719 37.1729 34.5428 36.1056C35.3808 34.977 35.7448 33.5627 35.5567 32.167C35.2791 28.497 33.6543 25.0619 30.9982 22.5295C28.416 20.0405 25.2596 18.6467 21.6398 19.2679C15.7745 20.2755 12.5745 26.3805 14.816 32.5135ZM26.7962 24.6124C25.1764 27.4359 24.0675 30.4426 24.024 33.7719C23.9344 35.513 24.4128 37.2358 25.3863 38.6783C26.1388 39.7535 27.1329 40.1279 28.2735 39.4031C29.3151 38.738 29.5606 37.7145 28.8755 36.6552C27.8022 34.9866 27.9566 33.2303 28.3527 31.4781C28.7487 29.7258 29.5408 28.1328 30.3329 26.5398C30.919 25.377 30.6775 24.3057 29.4616 23.6884C28.3171 23.107 27.3943 23.569 26.7962 24.6124Z" fill="#1F6FB7"/>
</svg>
