<svg width="64" height="90" viewBox="0 0 64 90" fill="none" xmlns="http://www.w3.org/2000/svg">
<path fill-rule="evenodd" clip-rule="evenodd" d="M59.0927 16.4429C61.1281 20.0986 62.4131 24.1279 62.8716 28.2921C63.5418 34.6944 62.2223 41.1481 59.0945 46.7652C55.9668 52.3822 51.1846 56.8864 45.4062 59.6577C42.7171 60.9122 39.9092 61.852 36.8596 61.6489C36.2028 61.6217 35.5501 61.5296 34.9111 61.3741C31.2675 60.3865 30.0161 58.8214 30.119 55.0779C30.1626 53.4889 29.8497 52.7163 28.1071 52.2265C24.6854 51.2707 21.9329 49.0206 19.4418 46.5276C15.3507 42.4297 11.7665 37.9893 10.4358 32.1391C8.65366 24.2579 13.0101 16.8824 20.5349 15.2656C24.1784 14.4691 27.5883 15.397 30.7567 17.2568C31.1213 17.518 31.5539 17.6666 32.0013 17.6843C32.4487 17.702 32.8915 17.588 33.2755 17.3564C35.6794 16.1178 38.1666 15.1421 40.9389 14.9948C46.8597 14.6722 51.0418 17.4679 53.022 23.111C53.7913 25.1891 54.124 27.405 53.9993 29.6189C53.8745 31.8328 53.295 33.9967 52.2973 35.9742C49.9248 40.9563 46.4662 45.3366 42.1785 48.7897C40.2134 50.4525 37.9181 51.6744 35.4458 52.3738C34.5547 52.6287 34.3091 52.9433 34.2814 53.8234C34.1745 56.9258 35.4299 58.0727 38.5745 57.4833C43.0735 56.6439 47.2058 54.43 50.4082 51.1433C58.2696 43.2421 60.9032 33.7839 57.3785 23.1707C53.7904 12.4062 45.9488 6.26929 34.7804 4.80376C20.5111 2.91609 7.30317 13.4695 5.43782 28.0054C4.2497 37.4238 7.33089 45.2772 14.1507 51.7406C15.0656 52.6048 15.8616 53.015 17.2398 52.4854C19.8656 51.4778 22.6378 52.5371 24.1943 54.7991C24.9302 55.863 25.3148 57.1327 25.2934 58.4285C25.2721 59.7243 24.846 60.9805 24.0755 62.0193C23.2685 63.0776 22.15 63.8529 20.8792 64.2348C19.6085 64.6166 18.2504 64.5855 16.9982 64.1459C15.7692 63.7385 14.7113 62.9287 13.9934 61.846C13.2756 60.7632 12.9391 59.4698 13.0378 58.1722C13.1329 56.7625 12.6933 55.97 11.6675 55.0301C2.26157 46.4161 -1.07705 35.6676 2.16256 23.4136L2.2695 23.0154C3.33559 18.9714 5.19071 15.181 7.72694 11.8646C10.1853 8.75892 13.2658 6.20804 16.7685 4.37764L17.1962 4.15461C18.6223 3.33592 20.1354 2.68133 21.7071 2.20322C23.3219 1.65673 24.9773 1.23992 26.6576 0.956722C28.6816 0.615887 30.7327 0.465242 32.7844 0.506718C35.1331 0.533061 37.4693 0.854135 39.7388 1.4625C43.8281 2.54215 47.6634 4.4278 51.022 7.01002C54.3129 9.57959 57.0573 12.7872 59.0927 16.4429ZM21.1527 58.1324C21.0656 56.9258 20.2656 56.2806 18.9626 56.2169C17.7982 56.4638 16.9507 57.1607 17.0774 58.4869C17.084 58.7545 17.1458 59.0178 17.2591 59.26C17.3724 59.5022 17.5346 59.7181 17.7354 59.8938C17.9363 60.0695 18.1713 60.2012 18.4255 60.2806C18.6797 60.3599 18.9476 60.3851 19.2121 60.3546C20.5468 60.2869 21.2438 59.4227 21.1527 58.1324ZM14.816 32.5135C17.2438 39.1522 21.8062 44.1143 27.8458 47.6746C30.0596 48.9808 32.4953 49.3153 34.8992 48.2242C42.5745 44.7196 47.5052 38.7141 49.7032 30.6736C50.725 26.946 49.5923 23.2344 46.5349 20.5742C43.624 18.0453 40.3606 18.9732 37.1923 20.1122C37.1248 20.1368 37.0584 20.1639 36.992 20.191C36.8754 20.2387 36.759 20.2863 36.6379 20.3193C35.5012 20.6379 35.224 21.0321 36.0161 22.195C38.123 25.2137 39.521 28.547 39.624 32.3064C39.7747 34.4461 39.1842 36.5723 37.9527 38.3238C37.1488 39.4469 36.0715 39.869 34.8834 39.0487C33.7943 38.288 33.719 37.1729 34.5428 36.1056C35.3808 34.977 35.7448 33.5627 35.5567 32.167C35.2791 28.497 33.6543 25.0619 30.9982 22.5295C28.416 20.0405 25.2596 18.6467 21.6398 19.2679C15.7745 20.2755 12.5745 26.3805 14.816 32.5135ZM26.7962 24.6124C25.1764 27.4359 24.0675 30.4426 24.024 33.7719C23.9344 35.513 24.4128 37.2358 25.3863 38.6783C26.1388 39.7535 27.1329 40.1279 28.2735 39.4031C29.3151 38.738 29.5606 37.7145 28.8755 36.6552C27.8022 34.9866 27.9566 33.2303 28.3527 31.4781C28.7487 29.7258 29.5408 28.1328 30.3329 26.5398C30.919 25.377 30.6775 24.3057 29.4616 23.6884C28.3171 23.107 27.3943 23.569 26.7962 24.6124Z" fill="#1F6FB7"/>
<path d="M9.036 85.5V75.7H15.098V76.666H10.212V79.844H14.482V80.796H10.212V84.534H15.098V85.5H9.036ZM19.5283 85.668C18.9777 85.668 18.483 85.5747 18.0443 85.388C17.6057 85.192 17.251 84.9213 16.9803 84.576C16.719 84.2213 16.5557 83.806 16.4903 83.33H17.6943C17.769 83.694 17.9603 84.0113 18.2683 84.282C18.5857 84.5433 19.0103 84.674 19.5423 84.674C20.037 84.674 20.401 84.5713 20.6343 84.366C20.8677 84.1513 20.9843 83.8993 20.9843 83.61C20.9843 83.33 20.9143 83.1153 20.7743 82.966C20.6437 82.8167 20.4477 82.7047 20.1863 82.63C19.9343 82.546 19.6217 82.4667 19.2483 82.392C18.8563 82.308 18.4737 82.196 18.1003 82.056C17.727 81.9067 17.419 81.706 17.1763 81.454C16.9337 81.202 16.8123 80.8707 16.8123 80.46C16.8123 80.0493 16.915 79.69 17.1203 79.382C17.3257 79.074 17.615 78.8313 17.9883 78.654C18.371 78.4767 18.819 78.388 19.3323 78.388C20.0697 78.388 20.6717 78.5747 21.1383 78.948C21.6143 79.312 21.8897 79.8347 21.9643 80.516H20.8023C20.7557 80.1613 20.6017 79.886 20.3403 79.69C20.0883 79.4847 19.7477 79.382 19.3183 79.382C18.8983 79.382 18.5717 79.4707 18.3383 79.648C18.1143 79.8253 18.0023 80.0587 18.0023 80.348C18.0023 80.5347 18.0677 80.6933 18.1983 80.824C18.329 80.9547 18.5157 81.0667 18.7583 81.16C19.0103 81.2533 19.3043 81.3373 19.6403 81.412C20.107 81.5053 20.5317 81.622 20.9143 81.762C21.297 81.902 21.605 82.1073 21.8383 82.378C22.0717 82.6393 22.1883 83.0173 22.1883 83.512C22.1977 83.9227 22.0903 84.2913 21.8663 84.618C21.6517 84.9447 21.3437 85.2013 20.9423 85.388C20.5503 85.5747 20.079 85.668 19.5283 85.668ZM26.2979 85.5C25.6632 85.5 25.1639 85.346 24.7999 85.038C24.4359 84.73 24.2539 84.1747 24.2539 83.372V79.55H23.0499V78.556H24.2539V76.89H25.4299V78.556H27.3759V79.55H25.4299V83.372C25.4299 83.8107 25.5186 84.1093 25.6959 84.268C25.8732 84.4173 26.1859 84.492 26.6339 84.492H27.3759V85.5H26.2979ZM31.8985 85.668C31.2545 85.668 30.6712 85.5187 30.1485 85.22C29.6352 84.9213 29.2292 84.5013 28.9305 83.96C28.6319 83.4093 28.4825 82.7653 28.4825 82.028C28.4825 81.3 28.6225 80.6653 28.9025 80.124C29.1919 79.5733 29.5932 79.1487 30.1065 78.85C30.6292 78.542 31.2359 78.388 31.9265 78.388C32.5799 78.388 33.1492 78.5327 33.6345 78.822C34.1199 79.1113 34.4979 79.5033 34.7685 79.998C35.0485 80.4833 35.1885 81.0293 35.1885 81.636C35.1885 81.7667 35.1885 81.8693 35.1885 81.944C35.1885 82.0187 35.1839 82.1353 35.1745 82.294H29.6445C29.6725 82.7513 29.7799 83.162 29.9665 83.526C30.1625 83.8807 30.4239 84.1607 30.7505 84.366C31.0865 84.5713 31.4692 84.674 31.8985 84.674C32.3839 84.674 32.7899 84.562 33.1165 84.338C33.4432 84.114 33.6812 83.8107 33.8305 83.428H34.9925C34.8712 83.8573 34.6705 84.24 34.3905 84.576C34.1105 84.912 33.7605 85.178 33.3405 85.374C32.9299 85.57 32.4492 85.668 31.8985 85.668ZM29.6585 81.384H34.0265C33.9985 80.7587 33.7839 80.2687 33.3825 79.914C32.9812 79.5593 32.4865 79.382 31.8985 79.382C31.3385 79.382 30.8392 79.5547 30.4005 79.9C29.9712 80.236 29.7239 80.7307 29.6585 81.384ZM39.2588 85.5C38.6242 85.5 38.1248 85.346 37.7608 85.038C37.3968 84.73 37.2148 84.1747 37.2148 83.372V79.55H36.0108V78.556H37.2148V76.89H38.3908V78.556H40.3368V79.55H38.3908V83.372C38.3908 83.8107 38.4795 84.1093 38.6568 84.268C38.8342 84.4173 39.1468 84.492 39.5948 84.492H40.3368V85.5H39.2588ZM44.4769 85.668C43.9356 85.668 43.4596 85.5607 43.0489 85.346C42.6476 85.122 42.3349 84.786 42.1109 84.338C41.8869 83.8807 41.7749 83.3067 41.7749 82.616V78.556H42.9509V82.49C42.9509 83.2087 43.1002 83.75 43.3989 84.114C43.6976 84.478 44.1456 84.66 44.7429 84.66C45.3402 84.66 45.8349 84.4453 46.2269 84.016C46.6282 83.5773 46.8289 82.9567 46.8289 82.154V78.556H48.0049V85.5H46.9409L46.8709 84.254C46.6469 84.6927 46.3249 85.038 45.9049 85.29C45.4849 85.542 45.0089 85.668 44.4769 85.668ZM52.6006 85.668C52.0499 85.668 51.5553 85.5747 51.1166 85.388C50.6779 85.192 50.3233 84.9213 50.0526 84.576C49.7913 84.2213 49.6279 83.806 49.5626 83.33H50.7666C50.8413 83.694 51.0326 84.0113 51.3406 84.282C51.6579 84.5433 52.0826 84.674 52.6146 84.674C53.1093 84.674 53.4733 84.5713 53.7066 84.366C53.9399 84.1513 54.0566 83.8993 54.0566 83.61C54.0566 83.33 53.9866 83.1153 53.8466 82.966C53.7159 82.8167 53.5199 82.7047 53.2586 82.63C53.0066 82.546 52.6939 82.4667 52.3206 82.392C51.9286 82.308 51.5459 82.196 51.1726 82.056C50.7993 81.9067 50.4913 81.706 50.2486 81.454C50.0059 81.202 49.8846 80.8707 49.8846 80.46C49.8846 80.0493 49.9873 79.69 50.1926 79.382C50.3979 79.074 50.6873 78.8313 51.0606 78.654C51.4433 78.4767 51.8913 78.388 52.4046 78.388C53.1419 78.388 53.7439 78.5747 54.2106 78.948C54.6866 79.312 54.9619 79.8347 55.0366 80.516H53.8746C53.8279 80.1613 53.6739 79.886 53.4126 79.69C53.1606 79.4847 52.8199 79.382 52.3906 79.382C51.9706 79.382 51.6439 79.4707 51.4106 79.648C51.1866 79.8253 51.0746 80.0587 51.0746 80.348C51.0746 80.5347 51.1399 80.6933 51.2706 80.824C51.4013 80.9547 51.5879 81.0667 51.8306 81.16C52.0826 81.2533 52.3766 81.3373 52.7126 81.412C53.1793 81.5053 53.6039 81.622 53.9866 81.762C54.3693 81.902 54.6773 82.1073 54.9106 82.378C55.1439 82.6393 55.2606 83.0173 55.2606 83.512C55.2699 83.9227 55.1626 84.2913 54.9386 84.618C54.7239 84.9447 54.4159 85.2013 54.0146 85.388C53.6226 85.5747 53.1513 85.668 52.6006 85.668Z" fill="#ABACAD"/>
</svg>
