<svg width="119" height="32" viewBox="0 0 119 32" fill="none" xmlns="http://www.w3.org/2000/svg">
<path d="M0 0L17.636 12.7735C18.1287 13.1305 18.5292 13.5963 18.8052 14.1332C19.0812 14.6702 19.225 15.2633 19.225 15.8649C19.225 16.4664 19.0812 17.0596 18.8052 17.5965C18.5292 18.1335 18.1287 18.5992 17.636 18.9563L0 31.7298H29.4714V0H0Z" fill="#F59F23"/>
<path d="M0 7.23535V23.8468C1.11187 23.8481 2.21309 23.634 3.24067 23.2167C4.26824 22.7994 5.202 22.1872 5.98852 21.415C6.77504 20.6428 7.3989 19.7258 7.82439 18.7165C8.24989 17.7072 8.46867 16.6253 8.46823 15.5328C8.4638 13.3296 7.56944 11.2181 5.98163 9.66231C4.39381 8.10651 2.2424 7.23361 0 7.23535H0Z" fill="#F59F23"/>
<path d="M40.4871 0.473877V31.5692H32.7002V0.473877H40.4871Z" fill="#F0F2FF"/>
<path d="M73.1817 0.473877V31.5692H66.3068L53.1533 14.3974V31.5692H45.3664V0.473877H52.2413L65.351 17.6457V0.473877H73.1817Z" fill="#F0F2FF"/>
<path d="M92.2663 25.7017C95.5109 25.7017 98.0188 23.9181 99.0097 20.0495L106.367 21.7124C104.806 28.4243 99.6586 32 92.2663 32C82.9624 32 77.2275 26.322 77.2275 15.9828C77.2275 5.64351 82.9361 0 92.24 0C99.6323 0 104.78 3.61012 106.341 10.3393L98.9834 11.9505C97.9925 8.08185 95.4758 6.29833 92.24 6.29833C88.1274 6.29833 85.0144 9.27087 85.0144 15.9914C85.0144 22.7119 88.1537 25.7017 92.2663 25.7017Z" fill="#F0F2FF"/>
<path d="M118.179 0.473877V31.5692H110.392V0.473877H118.179Z" fill="#F0F2FF"/>
</svg>
