<svg width="118" height="32" viewBox="0 0 118 32" fill="none" xmlns="http://www.w3.org/2000/svg">
<g clip-path="url(#clip0_1_890)">
<path d="M0.759644 0L18.2354 12.8803C20.3343 14.4287 20.3343 17.5675 18.2354 19.1159L0.759644 32H29.9649V0H0.759644Z" fill="#F59F23"/>
<path d="M0.767334 7.2793V24.0516C5.3972 24.0516 9.15156 20.2972 9.15156 15.6673C9.15156 11.0375 5.3972 7.2793 0.767334 7.2793Z" fill="#F59F23"/>
<path d="M36.0514 0.615479H43.6863V31.3347H36.0514V0.615479Z" fill="#061859"/>
<path d="M75.8545 0.615479V31.3347H68.6555L55.0947 13.0332V31.3347H47.5477V0.615479H54.7468L68.3076 18.917V0.615479H75.8545Z" fill="#061859"/>
<path d="M94.3319 4.4978e-05C100.782 4.4978e-05 105.832 3.028 108.287 8.6022L101.661 11.9819C100.258 8.82394 97.5778 7.19909 94.374 7.19909C89.6332 7.19909 86.2535 10.8426 86.2535 15.9771C86.2535 21.1116 89.6332 24.7551 94.374 24.7551C97.5778 24.7551 100.254 23.1303 101.661 19.9723L108.287 23.352C105.828 28.9262 100.782 31.9542 94.3319 31.9542C84.9842 32.0842 78.1828 25.1948 78.3128 16.023C78.179 6.98117 84.7625 -0.129943 94.3319 4.4978e-05Z" fill="#061859"/>
<path d="M109.602 0.615479H117.237V31.3347H109.602V0.615479Z" fill="#061859"/>
</g>
<defs>
<clipPath id="clip0_1_890">
<rect width="116.481" height="32" fill="white" transform="translate(0.759644)"/>
</clipPath>
</defs>
</svg>
