<svg width="82" height="90" viewBox="0 0 82 90" fill="none" xmlns="http://www.w3.org/2000/svg">
<path d="M44.6136 0.5C45.1842 0.880827 45.7548 1.26165 46.3254 1.64248C57.7368 7.54529 69.1483 13.2577 80.3696 19.1605C80.75 19.3509 81.1303 19.5413 81.7009 19.9222C79.799 20.8742 78.2775 22.0167 76.5658 22.7783C76.1854 22.9688 75.2344 22.7784 74.6638 22.3975C65.1543 17.2564 55.4545 12.3056 45.945 7.35488C44.8038 6.78364 44.0431 6.78364 42.9019 7.35488C32.8218 12.8769 22.9318 18.3988 12.8517 23.9208C12.6615 24.1112 12.2811 24.3017 11.9007 24.4921C13.9928 25.4441 15.7046 26.3962 17.6065 27.1579C18.177 27.3483 18.9378 27.1579 19.5084 26.777C26.7357 22.9688 33.7727 18.9701 41 15.1618C41.951 14.5906 42.5215 14.5906 43.4725 14.9714C44.994 15.7331 46.5155 16.4947 48.4175 17.2564C40.4294 21.6359 32.8218 26.0154 24.8337 30.3949C25.4043 30.7757 25.7847 30.9661 25.9749 31.1565C31.1101 33.6319 36.055 36.1073 41.1902 38.5826C41.7608 38.9635 42.9019 38.7731 43.4725 38.5826C50.6997 34.584 58.1172 30.5853 65.3445 26.5866C65.915 26.3962 66.2954 26.0154 67.0562 25.825C67.0562 26.3962 67.0562 26.9674 67.0562 27.3483C67.0562 35.3456 67.0562 43.343 67.0562 51.3403C67.0562 52.6732 66.6758 53.2445 65.5347 53.6253C63.8229 54.3869 62.3014 55.1486 60.5897 55.9103C58.878 56.6719 57.3564 57.4336 55.6447 58.1952C51.6507 60.0993 47.6567 61.8131 43.6627 63.9076C43.0921 64.098 42.7117 64.4788 42.1411 64.4788C40.6196 64.6693 39.2883 63.5268 37.9569 62.9555C36.4354 62.1939 34.9139 61.4322 33.2022 60.6706C32.061 60.0993 31.1101 59.7185 29.9689 59.1473C29.3983 58.9569 28.8278 58.576 28.2572 58.3856C27.8768 58.1952 26.9258 57.624 26.5455 57.624C24.8337 56.8623 23.3122 56.1007 21.6005 55.339C20.4593 54.7678 19.3182 54.1965 17.9869 53.6253C16.8457 53.0541 16.4653 52.4828 16.4653 51.3403C16.4653 45.6279 16.2751 39.9155 16.2751 34.2031C16.2751 33.0607 15.8948 32.4894 14.9438 32.1086C10.3792 29.8236 5.62443 27.5387 1.05984 25.2537C1.05984 25.2537 0.679455 25.0633 0.299072 24.6825C10.9498 18.7797 21.6005 13.0673 32.061 7.16446C36.055 5.06992 40.049 2.78496 44.0431 0.5C44.2332 0.5 44.4234 0.5 44.6136 0.5ZM21.9809 35.536C21.9809 40.106 21.9809 44.4855 21.9809 48.865C21.9809 49.2458 22.5514 50.0074 23.122 50.1979C29.0179 53.0541 34.9139 55.7198 40.8098 58.3856C41.3804 58.576 41.951 58.576 42.5215 58.3856C48.6076 55.7198 54.5036 52.8636 60.3995 50.0074C60.9701 49.817 61.3505 48.865 61.3505 48.2937C61.3505 45.2471 61.3505 42.3909 61.3505 39.3443C61.3505 37.821 61.3505 36.4881 61.3505 34.7744C56.4055 37.4402 51.8409 40.106 47.2763 42.5813C45.5646 43.5334 43.8529 45.0567 42.3313 45.0567C40.6196 45.0567 38.9079 43.7238 37.1962 42.7717C32.061 40.4868 27.116 38.0114 21.9809 35.536Z" fill="#430283"/>
<path d="M5.158 85.668C4.49533 85.668 3.89333 85.5467 3.352 85.304C2.82 85.0613 2.39533 84.7113 2.078 84.254C1.77 83.7873 1.616 83.2227 1.616 82.56H2.848C2.848 83.2133 3.06267 83.7313 3.492 84.114C3.92133 84.4873 4.47667 84.674 5.158 84.674C5.75533 84.674 6.25 84.5293 6.642 84.24C7.04333 83.9507 7.244 83.54 7.244 83.008C7.244 82.644 7.17867 82.3547 7.048 82.14C6.92667 81.916 6.74 81.734 6.488 81.594C6.236 81.4447 5.91867 81.3047 5.536 81.174C5.15333 81.0433 4.70067 80.8893 4.178 80.712C3.71133 80.544 3.31 80.3527 2.974 80.138C2.64733 79.9233 2.39533 79.662 2.218 79.354C2.04067 79.0367 1.952 78.6587 1.952 78.22C1.94267 77.6413 2.07333 77.156 2.344 76.764C2.624 76.3627 2.99733 76.0593 3.464 75.854C3.94 75.6393 4.46267 75.532 5.032 75.532C5.61067 75.532 6.12867 75.6393 6.586 75.854C7.05267 76.0593 7.426 76.3673 7.706 76.778C7.986 77.1793 8.13067 77.6693 8.14 78.248H6.908C6.908 77.7533 6.73067 77.3473 6.376 77.03C6.02133 76.7033 5.55933 76.54 4.99 76.54C4.486 76.5213 4.05667 76.6473 3.702 76.918C3.34733 77.1887 3.17 77.5853 3.17 78.108C3.17 78.4533 3.24 78.7287 3.38 78.934C3.52933 79.13 3.78133 79.3027 4.136 79.452C4.49067 79.6013 4.98067 79.7833 5.606 79.998C6.054 80.1473 6.45533 80.306 6.81 80.474C7.16467 80.6327 7.46333 80.824 7.706 81.048C7.94867 81.2627 8.13533 81.524 8.266 81.832C8.39667 82.1307 8.462 82.4993 8.462 82.938C8.462 83.526 8.308 84.0253 8 84.436C7.70133 84.8373 7.3 85.1453 6.796 85.36C6.30133 85.5653 5.75533 85.668 5.158 85.668ZM13.2658 85.668C12.6311 85.668 12.0478 85.528 11.5158 85.248C10.9838 84.9587 10.5591 84.5433 10.2418 84.002C9.92442 83.4513 9.76575 82.7887 9.76575 82.014C9.76575 81.2767 9.91975 80.6373 10.2278 80.096C10.5451 79.5547 10.9698 79.1347 11.5018 78.836C12.0431 78.5373 12.6498 78.388 13.3218 78.388C13.9658 78.388 14.5538 78.528 15.0858 78.808C15.6271 79.088 16.0611 79.4987 16.3878 80.04C16.7144 80.5813 16.8778 81.2393 16.8778 82.014C16.8778 82.7233 16.7238 83.3533 16.4158 83.904C16.1078 84.4547 15.6784 84.8887 15.1278 85.206C14.5864 85.514 13.9658 85.668 13.2658 85.668ZM13.2658 84.646C13.7231 84.646 14.1338 84.5387 14.4978 84.324C14.8618 84.1 15.1511 83.792 15.3658 83.4C15.5804 83.008 15.6878 82.546 15.6878 82.014C15.6878 81.51 15.5944 81.062 15.4078 80.67C15.2211 80.278 14.9504 79.97 14.5958 79.746C14.2411 79.522 13.8118 79.41 13.3078 79.41C12.7944 79.41 12.3604 79.5267 12.0058 79.76C11.6604 79.9933 11.3991 80.306 11.2218 80.698C11.0444 81.09 10.9558 81.5287 10.9558 82.014C10.9558 82.63 11.0678 83.134 11.2918 83.526C11.5158 83.9087 11.8051 84.1933 12.1598 84.38C12.5144 84.5573 12.8831 84.646 13.2658 84.646ZM11.8518 77.758V76.82L14.7918 75.042V76.12L11.8518 77.758ZM18.579 85.5V75.7H24.641V76.666H19.755V79.844H24.025V80.796H19.755V84.534H24.641V85.5H18.579ZM29.5613 85.668C28.852 85.668 28.2406 85.5047 27.7273 85.178C27.214 84.8513 26.8173 84.4127 26.5373 83.862C26.2573 83.3113 26.1173 82.6953 26.1173 82.014C26.1173 81.342 26.2526 80.7307 26.5233 80.18C26.8033 79.6293 27.2 79.1953 27.7133 78.878C28.2266 78.5513 28.8473 78.388 29.5753 78.388C30.1446 78.388 30.6486 78.5047 31.0873 78.738C31.526 78.9713 31.8666 79.298 32.1093 79.718V75.7H33.2853V85.5H32.2213L32.1093 84.352C31.8853 84.688 31.5633 84.9913 31.1433 85.262C30.7233 85.5327 30.196 85.668 29.5613 85.668ZM29.6873 84.646C30.2006 84.646 30.6346 84.5293 30.9893 84.296C31.344 84.0533 31.61 83.736 31.7873 83.344C31.974 82.9427 32.0673 82.504 32.0673 82.028C32.0673 81.524 31.974 81.076 31.7873 80.684C31.6006 80.292 31.33 79.984 30.9753 79.76C30.6206 79.5267 30.1913 79.41 29.6873 79.41C29.2393 79.41 28.838 79.5173 28.4833 79.732C28.1286 79.9467 27.844 80.25 27.6293 80.642C27.424 81.0247 27.3213 81.4867 27.3213 82.028C27.3213 82.5693 27.4286 83.036 27.6433 83.428C27.858 83.82 28.1426 84.1233 28.4973 84.338C28.8613 84.5433 29.258 84.646 29.6873 84.646ZM37.7503 85.668C37.209 85.668 36.733 85.5607 36.3223 85.346C35.921 85.122 35.6083 84.786 35.3843 84.338C35.1603 83.8807 35.0483 83.3067 35.0483 82.616V78.556H36.2243V82.49C36.2243 83.2087 36.3737 83.75 36.6723 84.114C36.971 84.478 37.419 84.66 38.0163 84.66C38.6137 84.66 39.1083 84.4453 39.5003 84.016C39.9017 83.5773 40.1023 82.9567 40.1023 82.154V78.556H41.2783V85.5H40.2143L40.1443 84.254C39.9203 84.6927 39.5983 85.038 39.1783 85.29C38.7583 85.542 38.2823 85.668 37.7503 85.668ZM46.406 85.668C45.7527 85.668 45.16 85.5187 44.628 85.22C44.1054 84.9213 43.69 84.5013 43.382 83.96C43.074 83.4093 42.92 82.7653 42.92 82.028C42.92 81.3093 43.0694 80.6793 43.368 80.138C43.6667 79.5873 44.0774 79.158 44.6 78.85C45.1227 78.542 45.7247 78.388 46.406 78.388C47.2274 78.388 47.918 78.6027 48.478 79.032C49.0474 79.4613 49.4067 80.0353 49.556 80.754H48.352C48.2587 80.3247 48.03 79.9933 47.666 79.76C47.302 79.5173 46.8774 79.396 46.392 79.396C45.8974 79.396 45.482 79.5173 45.146 79.76C44.81 80.0027 44.5534 80.3247 44.376 80.726C44.208 81.1273 44.124 81.5613 44.124 82.028C44.124 82.5413 44.222 82.9987 44.418 83.4C44.614 83.8013 44.88 84.114 45.216 84.338C45.5614 84.562 45.9534 84.674 46.392 84.674C46.8774 84.674 47.302 84.5573 47.666 84.324C48.03 84.0813 48.2587 83.7407 48.352 83.302H49.556C49.4627 83.7687 49.2714 84.1793 48.982 84.534C48.6927 84.8887 48.3287 85.1687 47.89 85.374C47.4514 85.57 46.9567 85.668 46.406 85.668ZM53.5084 85.668C53.0324 85.668 52.5984 85.5887 52.2064 85.43C51.8144 85.2713 51.5018 85.0333 51.2684 84.716C51.0444 84.3893 50.9324 83.9927 50.9324 83.526C50.9324 82.9847 51.0724 82.5553 51.3524 82.238C51.6324 81.9113 52.0011 81.678 52.4584 81.538C52.9251 81.3887 53.4244 81.314 53.9564 81.314H55.8324C55.8324 80.8287 55.7484 80.446 55.5804 80.166C55.4218 79.886 55.2118 79.6853 54.9504 79.564C54.6891 79.4427 54.3998 79.382 54.0824 79.382C53.6251 79.382 53.2284 79.494 52.8924 79.718C52.5658 79.9327 52.3604 80.2687 52.2764 80.726H51.0724C51.1191 80.222 51.2871 79.7973 51.5764 79.452C51.8658 79.1067 52.2298 78.8453 52.6684 78.668C53.1164 78.4813 53.5878 78.388 54.0824 78.388C54.7824 78.388 55.3471 78.5187 55.7764 78.78C56.2058 79.032 56.5184 79.3727 56.7144 79.802C56.9104 80.2313 57.0084 80.7073 57.0084 81.23V83.358C57.0084 83.7033 57.0504 83.9647 57.1344 84.142C57.2184 84.3193 57.4331 84.4267 57.7784 84.464V85.5C57.4704 85.5 57.1904 85.4627 56.9384 85.388C56.6864 85.304 56.4718 85.1733 56.2944 84.996C56.1264 84.8093 56.0051 84.5667 55.9304 84.268C55.6971 84.66 55.3751 84.9913 54.9644 85.262C54.5631 85.5327 54.0778 85.668 53.5084 85.668ZM53.6904 84.674C54.1571 84.674 54.5491 84.5573 54.8664 84.324C55.1838 84.0813 55.4218 83.7733 55.5804 83.4C55.7484 83.0267 55.8324 82.6393 55.8324 82.238V82.224H54.0544C53.7278 82.224 53.4198 82.2613 53.1304 82.336C52.8411 82.4013 52.6078 82.5273 52.4304 82.714C52.2531 82.8913 52.1644 83.1433 52.1644 83.47C52.1644 83.89 52.3138 84.198 52.6124 84.394C52.9111 84.5807 53.2704 84.674 53.6904 84.674ZM62.1824 85.668C61.4731 85.668 60.8617 85.5047 60.3484 85.178C59.8351 84.8513 59.4384 84.4127 59.1584 83.862C58.8784 83.3113 58.7384 82.6953 58.7384 82.014C58.7384 81.342 58.8737 80.7307 59.1444 80.18C59.4244 79.6293 59.8211 79.1953 60.3344 78.878C60.8477 78.5513 61.4684 78.388 62.1964 78.388C62.7657 78.388 63.2697 78.5047 63.7084 78.738C64.1471 78.9713 64.4877 79.298 64.7304 79.718V75.7H65.9064V85.5H64.8424L64.7304 84.352C64.5064 84.688 64.1844 84.9913 63.7644 85.262C63.3444 85.5327 62.8171 85.668 62.1824 85.668ZM62.3084 84.646C62.8217 84.646 63.2557 84.5293 63.6104 84.296C63.9651 84.0533 64.2311 83.736 64.4084 83.344C64.5951 82.9427 64.6884 82.504 64.6884 82.028C64.6884 81.524 64.5951 81.076 64.4084 80.684C64.2217 80.292 63.9511 79.984 63.5964 79.76C63.2417 79.5267 62.8124 79.41 62.3084 79.41C61.8604 79.41 61.4591 79.5173 61.1044 79.732C60.7497 79.9467 60.4651 80.25 60.2504 80.642C60.0451 81.0247 59.9424 81.4867 59.9424 82.028C59.9424 82.5693 60.0497 83.036 60.2644 83.428C60.4791 83.82 60.7637 84.1233 61.1184 84.338C61.4824 84.5433 61.8791 84.646 62.3084 84.646ZM71.0294 85.668C70.3948 85.668 69.8114 85.528 69.2794 85.248C68.7474 84.9587 68.3228 84.5433 68.0054 84.002C67.6881 83.4513 67.5294 82.7887 67.5294 82.014C67.5294 81.2767 67.6834 80.6373 67.9914 80.096C68.3088 79.5547 68.7334 79.1347 69.2654 78.836C69.8068 78.5373 70.4134 78.388 71.0854 78.388C71.7294 78.388 72.3174 78.528 72.8494 78.808C73.3908 79.088 73.8248 79.4987 74.1514 80.04C74.4781 80.5813 74.6414 81.2393 74.6414 82.014C74.6414 82.7233 74.4874 83.3533 74.1794 83.904C73.8714 84.4547 73.4421 84.8887 72.8914 85.206C72.3501 85.514 71.7294 85.668 71.0294 85.668ZM71.0294 84.646C71.4868 84.646 71.8974 84.5387 72.2614 84.324C72.6254 84.1 72.9148 83.792 73.1294 83.4C73.3441 83.008 73.4514 82.546 73.4514 82.014C73.4514 81.51 73.3581 81.062 73.1714 80.67C72.9848 80.278 72.7141 79.97 72.3594 79.746C72.0048 79.522 71.5754 79.41 71.0714 79.41C70.5581 79.41 70.1241 79.5267 69.7694 79.76C69.4241 79.9933 69.1628 80.306 68.9854 80.698C68.8081 81.09 68.7194 81.5287 68.7194 82.014C68.7194 82.63 68.8314 83.134 69.0554 83.526C69.2794 83.9087 69.5688 84.1933 69.9234 84.38C70.2781 84.5573 70.6468 84.646 71.0294 84.646ZM76.2726 85.5V78.556H77.3366L77.4346 79.886C77.6493 79.4287 77.976 79.0647 78.4146 78.794C78.8533 78.5233 79.3946 78.388 80.0386 78.388V79.62H79.7166C78.9513 79.62 78.382 79.8253 78.0086 80.236C77.6353 80.6467 77.4486 81.2347 77.4486 82V85.5H76.2726Z" fill="#ABACAD"/>
</svg>
