<svg width="82" height="65" viewBox="0 0 82 65" fill="none" xmlns="http://www.w3.org/2000/svg">
<path d="M44.6136 0.5C45.1842 0.880827 45.7548 1.26165 46.3254 1.64248C57.7368 7.54529 69.1483 13.2577 80.3696 19.1605C80.75 19.3509 81.1303 19.5413 81.7009 19.9222C79.799 20.8742 78.2775 22.0167 76.5658 22.7783C76.1854 22.9688 75.2344 22.7784 74.6638 22.3975C65.1543 17.2564 55.4545 12.3056 45.945 7.35488C44.8038 6.78364 44.0431 6.78364 42.9019 7.35488C32.8218 12.8769 22.9318 18.3988 12.8517 23.9208C12.6615 24.1112 12.2811 24.3017 11.9007 24.4921C13.9928 25.4441 15.7046 26.3962 17.6065 27.1579C18.177 27.3483 18.9378 27.1579 19.5084 26.777C26.7357 22.9688 33.7727 18.9701 41 15.1618C41.951 14.5906 42.5215 14.5906 43.4725 14.9714C44.994 15.7331 46.5155 16.4947 48.4175 17.2564C40.4294 21.6359 32.8218 26.0154 24.8337 30.3949C25.4043 30.7757 25.7847 30.9661 25.9749 31.1565C31.1101 33.6319 36.055 36.1073 41.1902 38.5826C41.7608 38.9635 42.9019 38.7731 43.4725 38.5826C50.6997 34.584 58.1172 30.5853 65.3445 26.5866C65.915 26.3962 66.2954 26.0154 67.0562 25.825C67.0562 26.3962 67.0562 26.9674 67.0562 27.3483C67.0562 35.3456 67.0562 43.343 67.0562 51.3403C67.0562 52.6732 66.6758 53.2445 65.5347 53.6253C63.8229 54.3869 62.3014 55.1486 60.5897 55.9103C58.878 56.6719 57.3564 57.4336 55.6447 58.1952C51.6507 60.0993 47.6567 61.8131 43.6627 63.9076C43.0921 64.098 42.7117 64.4788 42.1411 64.4788C40.6196 64.6693 39.2883 63.5268 37.9569 62.9555C36.4354 62.1939 34.9139 61.4322 33.2022 60.6706C32.061 60.0993 31.1101 59.7185 29.9689 59.1473C29.3983 58.9569 28.8278 58.576 28.2572 58.3856C27.8768 58.1952 26.9258 57.624 26.5455 57.624C24.8337 56.8623 23.3122 56.1007 21.6005 55.339C20.4593 54.7678 19.3182 54.1965 17.9869 53.6253C16.8457 53.0541 16.4653 52.4828 16.4653 51.3403C16.4653 45.6279 16.2751 39.9155 16.2751 34.2031C16.2751 33.0607 15.8948 32.4894 14.9438 32.1086C10.3792 29.8236 5.62443 27.5387 1.05984 25.2537C1.05984 25.2537 0.679455 25.0633 0.299072 24.6825C10.9498 18.7797 21.6005 13.0673 32.061 7.16446C36.055 5.06992 40.049 2.78496 44.0431 0.5C44.2332 0.5 44.4234 0.5 44.6136 0.5ZM21.9809 35.536C21.9809 40.106 21.9809 44.4855 21.9809 48.865C21.9809 49.2458 22.5514 50.0074 23.122 50.1979C29.0179 53.0541 34.9139 55.7198 40.8098 58.3856C41.3804 58.576 41.951 58.576 42.5215 58.3856C48.6076 55.7198 54.5036 52.8636 60.3995 50.0074C60.9701 49.817 61.3505 48.865 61.3505 48.2937C61.3505 45.2471 61.3505 42.3909 61.3505 39.3443C61.3505 37.821 61.3505 36.4881 61.3505 34.7744C56.4055 37.4402 51.8409 40.106 47.2763 42.5813C45.5646 43.5334 43.8529 45.0567 42.3313 45.0567C40.6196 45.0567 38.9079 43.7238 37.1962 42.7717C32.061 40.4868 27.116 38.0114 21.9809 35.536Z" fill="#430283"/>
</svg>
