<svg width="29" height="65" viewBox="0 0 29 65" fill="none" xmlns="http://www.w3.org/2000/svg">
<g clip-path="url(#clip0_19_21136)">
<path d="M28.8039 9.88503V19.0238C24.1919 23.4464 20.489 27.4808 15.7539 32.017C16.019 32.1307 27.6485 36.7521 28.8796 37.1025L28.927 64.5C28.927 64.5 10.3369 58.1739 1.54847 55.2191C1.3133 55.1476 1.10398 55.0092 0.945944 54.8209C0.787911 54.6326 0.687969 54.4025 0.658262 54.1585C0.658262 51.8383 0.658262 49.215 0.658262 46.7622C0.678142 46.442 0.768191 46.1302 0.92203 45.8487C1.07587 45.5672 1.28973 45.323 1.54847 45.1333C4.93882 41.9324 8.31654 38.7125 11.6816 35.4737C12.7044 34.5266 14.6837 33.0587 15.7728 32.017C15.4035 31.8844 5.72485 29.3464 1.54847 27.9637C0.857137 27.7365 0.60144 27.2914 0.60144 26.439C0.60144 18.181 0.60144 9.90396 0.60144 1.62696C0.60144 1.30497 0.60144 0.982983 0.60144 0.5C1.05601 0.623113 1.35906 0.708346 1.65264 0.812519C9.54452 3.48313 17.4364 6.1569 25.3283 8.83383C26.4647 9.22211 27.639 9.53463 28.8039 9.88503Z" fill="#004EAF"/>
</g>
<defs>
<clipPath id="clip0_19_21136">
<rect width="28.2971" height="64" fill="white" transform="translate(0.60144 0.5)"/>
</clipPath>
</defs>
</svg>
