<svg width="49" height="90" viewBox="0 0 49 90" fill="none" xmlns="http://www.w3.org/2000/svg">
<g clip-path="url(#clip0_19_21135)">
<path d="M38.8039 9.88503V19.0238C34.1919 23.4464 30.489 27.4808 25.7539 32.017C26.019 32.1307 37.6485 36.7521 38.8796 37.1025L38.927 64.5C38.927 64.5 20.3369 58.1739 11.5485 55.2191C11.3133 55.1476 11.104 55.0092 10.9459 54.8209C10.7879 54.6326 10.688 54.4025 10.6583 54.1585C10.6583 51.8383 10.6583 49.215 10.6583 46.7622C10.6781 46.442 10.7682 46.1302 10.922 45.8487C11.0759 45.5672 11.2897 45.323 11.5485 45.1333C14.9388 41.9324 18.3165 38.7125 21.6816 35.4737C22.7044 34.5266 24.6837 33.0587 25.7728 32.017C25.4035 31.8844 15.7248 29.3464 11.5485 27.9637C10.8571 27.7365 10.6014 27.2914 10.6014 26.439C10.6014 18.181 10.6014 9.90396 10.6014 1.62696C10.6014 1.30497 10.6014 0.982983 10.6014 0.5C11.056 0.623113 11.3591 0.708346 11.6526 0.812519C19.5445 3.48313 27.4364 6.1569 35.3283 8.83383C36.4647 9.22211 37.639 9.53463 38.8039 9.88503Z" fill="#004EAF"/>
</g>
<path d="M1.366 85.5V84.576L6.196 76.722H1.436V75.7H7.568V76.624L2.724 84.478H7.624V85.5H1.366ZM11.5182 85.668C11.0422 85.668 10.6082 85.5887 10.2162 85.43C9.82419 85.2713 9.51152 85.0333 9.27819 84.716C9.05419 84.3893 8.94219 83.9927 8.94219 83.526C8.94219 82.9847 9.08219 82.5553 9.36219 82.238C9.64219 81.9113 10.0109 81.678 10.4682 81.538C10.9349 81.3887 11.4342 81.314 11.9662 81.314H13.8422C13.8422 80.8287 13.7582 80.446 13.5902 80.166C13.4315 79.886 13.2215 79.6853 12.9602 79.564C12.6989 79.4427 12.4095 79.382 12.0922 79.382C11.6349 79.382 11.2382 79.494 10.9022 79.718C10.5755 79.9327 10.3702 80.2687 10.2862 80.726H9.08219C9.12885 80.222 9.29685 79.7973 9.58619 79.452C9.87552 79.1067 10.2395 78.8453 10.6782 78.668C11.1262 78.4813 11.5975 78.388 12.0922 78.388C12.7922 78.388 13.3569 78.5187 13.7862 78.78C14.2155 79.032 14.5282 79.3727 14.7242 79.802C14.9202 80.2313 15.0182 80.7073 15.0182 81.23V83.358C15.0182 83.7033 15.0602 83.9647 15.1442 84.142C15.2282 84.3193 15.4429 84.4267 15.7882 84.464V85.5C15.4802 85.5 15.2002 85.4627 14.9482 85.388C14.6962 85.304 14.4815 85.1733 14.3042 84.996C14.1362 84.8093 14.0149 84.5667 13.9402 84.268C13.7069 84.66 13.3849 84.9913 12.9742 85.262C12.5729 85.5327 12.0875 85.668 11.5182 85.668ZM11.7002 84.674C12.1669 84.674 12.5589 84.5573 12.8762 84.324C13.1935 84.0813 13.4315 83.7733 13.5902 83.4C13.7582 83.0267 13.8422 82.6393 13.8422 82.238V82.224H12.0642C11.7375 82.224 11.4295 82.2613 11.1402 82.336C10.8509 82.4013 10.6175 82.5273 10.4402 82.714C10.2629 82.8913 10.1742 83.1433 10.1742 83.47C10.1742 83.89 10.3235 84.198 10.6222 84.394C10.9209 84.5807 11.2802 84.674 11.7002 84.674ZM17.2062 85.5V78.556H18.2702L18.3542 79.564C18.5782 79.1907 18.8769 78.9013 19.2502 78.696C19.6236 78.4907 20.0436 78.388 20.5102 78.388C21.0609 78.388 21.5322 78.5 21.9242 78.724C22.3256 78.948 22.6336 79.2887 22.8482 79.746C23.0909 79.326 23.4222 78.9947 23.8422 78.752C24.2716 78.5093 24.7336 78.388 25.2282 78.388C25.7882 78.388 26.2689 78.5 26.6702 78.724C27.0809 78.9387 27.3982 79.2747 27.6222 79.732C27.8462 80.18 27.9582 80.7493 27.9582 81.44V85.5H26.7962V81.566C26.7962 80.8473 26.6516 80.306 26.3622 79.942C26.0729 79.578 25.6576 79.396 25.1162 79.396C24.5562 79.396 24.0896 79.6153 23.7162 80.054C23.3522 80.4833 23.1702 81.0993 23.1702 81.902V85.5H21.9942V81.566C21.9942 80.8473 21.8496 80.306 21.5602 79.942C21.2709 79.578 20.8556 79.396 20.3142 79.396C19.7636 79.396 19.3016 79.6153 18.9282 80.054C18.5642 80.4833 18.3822 81.0993 18.3822 81.902V85.5H17.2062ZM29.7297 88.58V78.556H30.7937L30.9057 79.704C31.1297 79.368 31.447 79.0647 31.8577 78.794C32.2777 78.5233 32.8097 78.388 33.4537 78.388C34.1537 78.388 34.7603 78.5467 35.2737 78.864C35.787 79.1813 36.1837 79.6153 36.4637 80.166C36.7437 80.7167 36.8837 81.342 36.8837 82.042C36.8837 82.7327 36.7437 83.3533 36.4637 83.904C36.1837 84.4547 35.7823 84.8887 35.2597 85.206C34.7463 85.514 34.1397 85.668 33.4397 85.668C32.8703 85.668 32.3617 85.5513 31.9137 85.318C31.475 85.0847 31.139 84.758 30.9057 84.338V88.58H29.7297ZM33.3137 84.646C33.7897 84.646 34.205 84.5387 34.5597 84.324C34.9143 84.1 35.1897 83.792 35.3857 83.4C35.591 82.9987 35.6937 82.5413 35.6937 82.028C35.6937 81.5333 35.5957 81.09 35.3997 80.698C35.213 80.2967 34.9423 79.984 34.5877 79.76C34.233 79.5267 33.8083 79.41 33.3137 79.41C32.847 79.41 32.4317 79.522 32.0677 79.746C31.713 79.9607 31.433 80.264 31.2277 80.656C31.0317 81.048 30.9337 81.5053 30.9337 82.028C30.9337 82.5133 31.0317 82.9567 31.2277 83.358C31.4237 83.75 31.699 84.0627 32.0537 84.296C32.4083 84.5293 32.8283 84.646 33.3137 84.646ZM38.5207 85.5V75.7H39.6967V85.5H38.5207ZM42.3802 88.58L43.9202 85.22L40.9382 78.556H42.2122L44.5082 83.96L46.9442 78.556H48.1622L43.6122 88.58H42.3802Z" fill="#ABACAD"/>
<defs>
<clipPath id="clip0_19_21135">
<rect width="28.2971" height="64" fill="white" transform="translate(10.6014 0.5)"/>
</clipPath>
</defs>
</svg>
